<svg version="1.1" viewBox="0.0 0.0 656.7191601049868 199.68766404199476" fill="none" stroke="none" stroke-linecap="square" stroke-miterlimit="10" xmlns:xlink="http://www.w3.org/1999/xlink" xmlns="http://www.w3.org/2000/svg"><clipPath id="p.0"><path d="m0 0l656.7192 0l0 199.68767l-656.7192 0l0 -199.68767z" clip-rule="nonzero"/></clipPath><g clip-path="url(#p.0)"><path fill="#000000" fill-opacity="0.0" d="m0 0l656.7192 0l0 199.68767l-656.7192 0z" fill-rule="evenodd"/><path fill="#b7b7b7" d="m14.134549 75.12894l0 0c0 -9.613716 7.793456 -17.40717 17.407173 -17.40717l138.76047 0c4.6166687 0 9.0442505 1.8339653 12.308731 5.098442c3.2644653 3.2644768 5.0984344 7.6920586 5.0984344 12.308727l0 69.6266c0 9.613724 -7.793457 17.40718 -17.407166 17.40718l-138.76047 0c-9.613716 0 -17.407173 -7.793457 -17.407173 -17.40718z" fill-rule="evenodd"/><path fill="#434343" d="m24.096422 68.13072l15.181101 0l0 15.149605l-15.181101 0z" fill-rule="evenodd"/><path fill="#000000" d="m43.886448 68.13072l15.181103 0l0 15.149605l-15.181103 0z" fill-rule="evenodd"/><path fill="#ffffff" d="m63.676476 68.13072l15.181099 0l0 15.149605l-15.181099 0z" fill-rule="evenodd"/><path fill="#efefef" d="m83.4665 68.13072l15.181107 0l0 15.149605l-15.181107 0z" fill-rule="evenodd"/><path fill="#000000" d="m103.25653 68.13072l15.181099 0l0 15.149605l-15.181099 0z" fill-rule="evenodd"/><path fill="#ffffff" d="m123.046555 68.13072l15.181107 0l0 15.149605l-15.181107 0z" fill-rule="evenodd"/><path fill="#666666" d="m142.83658 68.13072l15.181107 0l0 15.149605l-15.181107 0z" fill-rule="evenodd"/><path fill="#434343" d="m162.6266 68.13072l15.181107 0l0 15.149605l-15.181107 0z" fill-rule="evenodd"/><path fill="#434343" d="m24.096422 92.13072l15.181101 0l0 15.149605l-15.181101 0z" fill-rule="evenodd"/><path fill="#000000" d="m63.636448 92.13072l15.181103 0l0 15.149605l-15.181103 0z" fill-rule="evenodd"/><path fill="#ffffff" d="m43.926476 92.13072l15.181103 0l0 15.149605l-15.181103 0z" fill-rule="evenodd"/><path fill="#efefef" d="m83.4665 92.13072l15.181107 0l0 15.149605l-15.181107 0z" fill-rule="evenodd"/><path fill="#000000" d="m103.25653 92.13072l15.181099 0l0 15.149605l-15.181099 0z" fill-rule="evenodd"/><path fill="#666666" d="m142.83658 92.13072l15.181107 0l0 15.149605l-15.181107 0z" fill-rule="evenodd"/><path fill="#434343" d="m162.6266 92.13072l15.181107 0l0 15.149605l-15.181107 0z" fill-rule="evenodd"/><path fill="#434343" d="m24.096422 116.13072l15.181101 0l0 15.149612l-15.181101 0z" fill-rule="evenodd"/><path fill="#000000" d="m43.886448 116.13072l15.181103 0l0 15.149612l-15.181103 0z" fill-rule="evenodd"/><path fill="#ffffff" d="m63.676476 116.13072l15.181099 0l0 15.149612l-15.181099 0z" fill-rule="evenodd"/><path fill="#efefef" d="m103.279 116.13072l15.181107 0l0 15.149612l-15.181107 0z" fill-rule="evenodd"/><path fill="#000000" d="m83.50653 116.13072l15.181099 0l0 15.149612l-15.181099 0z" fill-rule="evenodd"/><path fill="#666666" d="m142.83658 116.13072l15.181107 0l0 15.149612l-15.181107 0z" fill-rule="evenodd"/><path fill="#434343" d="m162.6266 116.13072l15.181107 0l0 15.149612l-15.181107 0z" fill-rule="evenodd"/><path fill="#434343" d="m24.096422 140.13072l15.181101 0l0 15.149612l-15.181101 0z" fill-rule="evenodd"/><path fill="#000000" d="m43.886448 140.13072l15.181103 0l0 15.149612l-15.181103 0z" fill-rule="evenodd"/><path fill="#ffffff" d="m63.676476 140.13072l15.181099 0l0 15.149612l-15.181099 0z" fill-rule="evenodd"/><path fill="#efefef" d="m83.4665 140.13072l15.181107 0l0 15.149612l-15.181107 0z" fill-rule="evenodd"/><path fill="#000000" d="m103.25653 140.13072l15.181099 0l0 15.149612l-15.181099 0z" fill-rule="evenodd"/><path fill="#666666" d="m142.83658 140.13072l15.181107 0l0 15.149612l-15.181107 0z" fill-rule="evenodd"/><path fill="#434343" d="m162.6266 140.13072l15.181107 0l0 15.149612l-15.181107 0z" fill-rule="evenodd"/><path fill="#ffffff" d="m123.046555 92.13072l15.181107 0l0 15.149605l-15.181107 0z" fill-rule="evenodd"/><path fill="#ffffff" d="m123.046555 116.13072l15.181107 0l0 15.149612l-15.181107 0z" fill-rule="evenodd"/><path fill="#ffffff" d="m123.046555 140.13072l15.181107 0l0 15.149612l-15.181107 0z" fill-rule="evenodd"/><path fill="#000000" fill-opacity="0.0" d="m59.865158 91.106224l0 0c0 -2.374443 1.9248619 -4.299301 4.299301 -4.299301l73.57463 0c1.1402435 0 2.23378 0.45295715 3.0400543 1.2592316c0.8062744 0.80628204 1.2592468 1.8998184 1.2592468 3.0400696l0 17.196678c0 2.3744354 -1.9248657 4.2992935 -4.299301 4.2992935l-73.57463 0c-2.3744392 0 -4.299301 -1.9248581 -4.299301 -4.2992935z" fill-rule="evenodd"/><path stroke="#ff0000" stroke-width="3.0" stroke-linejoin="round" stroke-linecap="butt" d="m59.865158 91.106224l0 0c0 -2.374443 1.9248619 -4.299301 4.299301 -4.299301l73.57463 0c1.1402435 0 2.23378 0.45295715 3.0400543 1.2592316c0.8062744 0.80628204 1.2592468 1.8998184 1.2592468 3.0400696l0 17.196678c0 2.3744354 -1.9248657 4.2992935 -4.299301 4.2992935l-73.57463 0c-2.3744392 0 -4.299301 -1.9248581 -4.299301 -4.2992935z" fill-rule="evenodd"/><path fill="#cccccc" d="m454.98425 163.09973l0 0c0 -11.602325 9.652313 -21.007874 21.559052 -21.007874l0 0c5.7178345 0 11.201447 2.2133331 15.244568 6.153076c4.043091 3.9397278 6.3144836 9.283173 6.3144836 14.854797l0 0c0 11.602341 -9.652313 21.007874 -21.559052 21.007874l0 0c-11.906738 0 -21.559052 -9.405533 -21.559052 -21.007874z" fill-rule="evenodd"/><path stroke="#ffffff" stroke-width="8.0" stroke-linejoin="round" stroke-linecap="butt" d="m454.98425 163.09973l0 0c0 -11.602325 9.652313 -21.007874 21.559052 -21.007874l0 0c5.7178345 0 11.201447 2.2133331 15.244568 6.153076c4.043091 3.9397278 6.3144836 9.283173 6.3144836 14.854797l0 0c0 11.602341 -9.652313 21.007874 -21.559052 21.007874l0 0c-11.906738 0 -21.559052 -9.405533 -21.559052 -21.007874z" fill-rule="evenodd"/><path fill="#000000" d="m474.86383 170.28535q-0.5 0 -0.9375 -0.25q-0.421875 -0.234375 -0.671875 -0.625q-0.25 -0.390625 -0.25 -0.859375q0 -0.640625 0.390625 -1.0625q0.40625 -0.4375 1.1875 -0.765625l1.65625 -0.734375q0.375 -0.171875 0.453125 -0.296875q0.09375 -0.125 0.09375 -0.484375l0.015625 -1.0625q0.015625 -0.53125 -0.1875 -0.828125q-0.203125 -0.3125 -0.609375 -0.3125q-0.25 0 -0.5 0.109375q-0.234375 0.09375 -0.359375 0.234375q-0.0625 0.0625 -0.09375 0.171875q-0.015625 0.09375 -0.015625 0.21875q0 0.109375 0.015625 0.265625q0.015625 0.15625 0.015625 0.265625q0 0.109375 -0.296875 0.296875q-0.296875 0.171875 -0.6875 0.3125q-0.390625 0.140625 -0.671875 0.140625q-0.125 0 -0.234375 -0.109375q-0.109375 -0.109375 -0.109375 -0.28125q0 -0.296875 0.203125 -0.578125q0.21875 -0.296875 0.6875 -0.671875q0.484375 -0.40625 1.0625 -0.71875q0.578125 -0.328125 1.140625 -0.515625q0.5625 -0.1875 0.96875 -0.1875q1.0 0 1.59375 0.65625q0.59375 0.640625 0.5625 1.703125l-0.09375 3.765625q-0.015625 0.421875 0.140625 0.71875q0.171875 0.296875 0.421875 0.296875q0.359375 0 0.609375 -0.234375q0.0625 -0.0625 0.109375 -0.0625q0.09375 0 0.15625 0.0625q0.078125 0.0625 0.078125 0.15625q0 0.21875 -0.34375 0.578125q-0.34375 0.328125 -0.75 0.5q-0.390625 0.1875 -0.8125 0.1875q-1.046875 0 -1.734375 -1.0625l-0.03125 0q-0.625 0.546875 -1.125 0.796875q-0.484375 0.265625 -1.046875 0.265625zm1.125 -1.21875q0.203125 0 0.328125 -0.0625q0.140625 -0.0625 0.265625 -0.21875q0.046875 -0.078125 0.078125 -0.1875q0.046875 -0.125 0.046875 -0.296875l0.0625 -1.34375q0 -0.1875 -0.0625 -0.234375q-0.046875 -0.0625 -0.125 -0.0625q-0.046875 0 -0.109375 0.015625q-0.046875 0.015625 -0.109375 0.0625q-0.546875 0.265625 -0.8125 0.53125q-0.265625 0.265625 -0.265625 0.859375q0 0.546875 0.21875 0.75q0.234375 0.1875 0.484375 0.1875z" fill-rule="nonzero"/><path fill="#cccccc" d="m528.1732 163.09973l0 0c0 -11.602325 9.652344 -21.007874 21.559082 -21.007874l0 0c5.7177734 0 11.201416 2.2133331 15.244568 6.153076c4.043091 3.9397278 6.314453 9.283173 6.314453 14.854797l0 0c0 11.602341 -9.652283 21.007874 -21.559021 21.007874l0 0c-11.906738 0 -21.559082 -9.405533 -21.559082 -21.007874z" fill-rule="evenodd"/><path stroke="#ffffff" stroke-width="8.0" stroke-linejoin="round" stroke-linecap="butt" d="m528.1732 163.09973l0 0c0 -11.602325 9.652344 -21.007874 21.559082 -21.007874l0 0c5.7177734 0 11.201416 2.2133331 15.244568 6.153076c4.043091 3.9397278 6.314453 9.283173 6.314453 14.854797l0 0c0 11.602341 -9.652283 21.007874 -21.559021 21.007874l0 0c-11.906738 0 -21.559082 -9.405533 -21.559082 -21.007874z" fill-rule="evenodd"/><path fill="#000000" d="m549.80145 170.28535q-0.53125 0 -1.0 -0.09375q-0.453125 -0.09375 -0.828125 -0.1875q-0.28125 -0.09375 -0.515625 -0.140625q-0.21875 -0.0625 -0.375 -0.0625q-0.1875 0 -0.359375 0.0625q-0.15625 0.0625 -0.3125 0.171875q-0.171875 0.140625 -0.265625 0.140625q-0.15625 0 -0.25 -0.078125q-0.078125 -0.078125 -0.078125 -0.171875q0 -0.171875 0.09375 -0.65625q0.109375 -0.484375 0.09375 -1.203125l-0.078125 -8.3125q0 -0.484375 -0.140625 -0.859375q-0.140625 -0.390625 -0.59375 -0.484375q-0.09375 -0.015625 -0.15625 -0.078125q-0.0625 -0.078125 -0.0625 -0.21875q0 -0.09375 0.046875 -0.15625q0.0625 -0.078125 0.15625 -0.09375q0.421875 -0.078125 0.953125 -0.25q0.546875 -0.1875 1.046875 -0.375q0.515625 -0.203125 0.796875 -0.296875q0.1875 -0.078125 0.265625 -0.078125q0.109375 0 0.15625 0.078125q0.046875 0.0625 0.046875 0.15625q0 0.109375 -0.046875 0.46875q-0.046875 0.34375 -0.046875 0.703125l0 3.984375q0 0.25 0.03125 0.390625q0.046875 0.140625 0.140625 0.140625q0.578125 -0.390625 1.203125 -0.609375q0.625 -0.21875 1.1875 -0.21875q0.96875 0 1.75 0.515625q0.78125 0.5 1.234375 1.375q0.46875 0.875 0.46875 1.96875q0 1.3125 -0.578125 2.328125q-0.578125 1.015625 -1.59375 1.578125q-1.015625 0.5625 -2.390625 0.5625zm0.34375 -0.78125q0.5 0 0.84375 -0.4375q0.359375 -0.453125 0.5625 -1.171875q0.203125 -0.734375 0.203125 -1.59375q0 -0.734375 -0.203125 -1.5q-0.203125 -0.765625 -0.625 -1.28125q-0.40625 -0.515625 -1.0625 -0.515625q-0.34375 0 -0.796875 0.109375q-0.4375 0.09375 -0.71875 0.328125l0 3.96875q0 0.59375 0.25 1.078125q0.25 0.484375 0.65625 0.75q0.421875 0.265625 0.890625 0.265625z" fill-rule="nonzero"/><path fill="#cccccc" d="m601.3622 163.09973l0 0c0 -11.602325 9.652344 -21.007874 21.559082 -21.007874l0 0c5.7178345 0 11.201416 2.2133331 15.244568 6.153076c4.043091 3.9397278 6.314453 9.283173 6.314453 14.854797l0 0c0 11.602341 -9.652283 21.007874 -21.559021 21.007874l0 0c-11.906738 0 -21.559082 -9.405533 -21.559082 -21.007874z" fill-rule="evenodd"/><path stroke="#ffffff" stroke-width="8.0" stroke-linejoin="round" stroke-linecap="butt" d="m601.3622 163.09973l0 0c0 -11.602325 9.652344 -21.007874 21.559082 -21.007874l0 0c5.7178345 0 11.201416 2.2133331 15.244568 6.153076c4.043091 3.9397278 6.314453 9.283173 6.314453 14.854797l0 0c0 11.602341 -9.652283 21.007874 -21.559021 21.007874l0 0c-11.906738 0 -21.559082 -9.405533 -21.559082 -21.007874z" fill-rule="evenodd"/><path fill="#000000" d="m623.0249 170.28535q-0.984375 0 -1.78125 -0.53125q-0.796875 -0.53125 -1.25 -1.4375q-0.453125 -0.90625 -0.453125 -2.046875q0 -1.21875 0.546875 -2.1875q0.5625 -0.96875 1.5 -1.546875q0.953125 -0.578125 2.109375 -0.578125q1.53125 0 2.53125 1.015625q0.171875 0.1875 0.171875 0.328125q0 0.109375 -0.171875 0.328125q-0.15625 0.21875 -0.375 0.390625q-0.203125 0.15625 -0.34375 0.15625q-0.171875 0 -0.328125 -0.09375q-0.15625 -0.109375 -0.3125 -0.234375q-0.484375 -0.40625 -0.984375 -0.65625q-0.484375 -0.265625 -0.84375 -0.265625q-0.703125 0 -1.078125 0.59375q-0.359375 0.59375 -0.359375 1.90625q0 0.921875 0.28125 1.59375q0.296875 0.65625 0.828125 1.015625q0.546875 0.34375 1.3125 0.34375q0.5625 0 0.96875 -0.171875q0.421875 -0.1875 0.859375 -0.5625q0.09375 -0.046875 0.15625 -0.09375q0.078125 -0.0625 0.171875 -0.0625q0.21875 0 0.21875 0.296875q0 0.0625 -0.03125 0.203125q-0.03125 0.140625 -0.125 0.3125q-0.15625 0.375 -0.640625 0.84375q-0.46875 0.46875 -1.125 0.8125q-0.65625 0.328125 -1.453125 0.328125z" fill-rule="nonzero"/><path fill="#e06666" d="m485.0551 99.950134l0 0c0 -11.602333 9.652313 -21.007874 21.559052 -21.007874l0 0c5.717804 0 11.201447 2.2133179 15.244537 6.153061c4.043152 3.939743 6.314514 9.283173 6.314514 14.854813l0 0c0 11.602325 -9.652283 21.007874 -21.559052 21.007874l0 0c-11.906738 0 -21.559052 -9.405548 -21.559052 -21.007874z" fill-rule="evenodd"/><path stroke="#ffffff" stroke-width="8.0" stroke-linejoin="round" stroke-linecap="butt" d="m485.0551 99.950134l0 0c0 -11.602333 9.652313 -21.007874 21.559052 -21.007874l0 0c5.717804 0 11.201447 2.2133179 15.244537 6.153061c4.043152 3.939743 6.314514 9.283173 6.314514 14.854813l0 0c0 11.602325 -9.652283 21.007874 -21.559052 21.007874l0 0c-11.906738 0 -21.559052 -9.405548 -21.559052 -21.007874z" fill-rule="evenodd"/><path fill="#cccccc" d="m520.6457 36.800526l0 0c0 -11.602329 9.652283 -21.007874 21.559021 -21.007874l0 0c5.7178345 0 11.201477 2.2133226 15.244568 6.153064c4.043091 3.9397411 6.314514 9.2831745 6.314514 14.854811l0 0c0 11.602329 -9.652344 21.007874 -21.559082 21.007874l0 0c-11.906738 0 -21.559021 -9.405544 -21.559021 -21.007874z" fill-rule="evenodd"/><path stroke="#ffffff" stroke-width="8.0" stroke-linejoin="round" stroke-linecap="butt" d="m520.6457 36.800526l0 0c0 -11.602329 9.652283 -21.007874 21.559021 -21.007874l0 0c5.7178345 0 11.201477 2.2133226 15.244568 6.153064c4.043091 3.9397411 6.314514 9.2831745 6.314514 14.854811l0 0c0 11.602329 -9.652344 21.007874 -21.559082 21.007874l0 0c-11.906738 0 -21.559021 -9.405544 -21.559021 -21.007874z" fill-rule="evenodd"/><path fill="#000000" fill-opacity="0.0" d="m476.5433 142.09186l14.834656 -27.275581" fill-rule="evenodd"/><path stroke="#666666" stroke-width="2.0" stroke-linejoin="round" stroke-linecap="butt" d="m476.5433 142.09186l9.101227 -16.733864" fill-rule="evenodd"/><path fill="#666666" stroke="#666666" stroke-width="2.0" stroke-linecap="butt" d="m488.54654 126.93634l1.4344482 -9.551575l-7.2384644 6.3948746z" fill-rule="evenodd"/><path fill="#000000" fill-opacity="0.0" d="m549.7323 142.09186l-27.874023 -27.275581" fill-rule="evenodd"/><path stroke="#666666" stroke-width="2.0" stroke-linejoin="round" stroke-linecap="butt" d="m549.7323 142.09186l-19.29718 -18.882866" fill-rule="evenodd"/><path fill="#666666" stroke="#666666" stroke-width="2.0" stroke-linecap="butt" d="m532.74554 120.84788l-8.797546 -3.9867172l4.176697 8.708939z" fill-rule="evenodd"/><path fill="#000000" fill-opacity="0.0" d="m506.61417 78.94226l20.346466 -27.275593" fill-rule="evenodd"/><path stroke="#666666" stroke-width="2.0" stroke-linejoin="round" stroke-linecap="butt" d="m506.61417 78.94226l13.171356 -17.656967" fill-rule="evenodd"/><path fill="#666666" stroke="#666666" stroke-width="2.0" stroke-linecap="butt" d="m522.4334 63.260517l2.7789917 -9.250267l-8.074768 5.29982z" fill-rule="evenodd"/><path fill="#000000" fill-opacity="0.0" d="m622.92126 142.09186l-65.48035 -90.425186" fill-rule="evenodd"/><path stroke="#666666" stroke-width="2.0" stroke-linejoin="round" stroke-linecap="butt" d="m622.92126 142.09186l-58.4422 -80.70589" fill-rule="evenodd"/><path fill="#666666" stroke="#666666" stroke-width="2.0" stroke-linecap="butt" d="m567.15466 59.448456l-7.9989014 -5.413677l2.647705 9.288708z" fill-rule="evenodd"/><path fill="#ffd966" d="m146.5168 99.70604l12.897629 -12.897644l0 6.448822l304.25198 0l0 -6.448822l12.897614 12.897644l-12.897614 12.897636l0 -6.448822l-304.25198 0l0 6.448822z" fill-rule="evenodd"/><path fill="#000000" fill-opacity="0.0" d="m189.20866 25.299213l277.6693 0l0 67.87401l-277.6693 0z" fill-rule="evenodd"/><path fill="#000000" d="m205.14464 53.78046q-0.984375 0 -1.53125 -0.59375q-0.546875 -0.609375 -0.546875 -1.78125l0 -4.640625q0 -0.171875 -0.125 -0.234375q-0.125 -0.078125 -0.515625 -0.078125l-0.125 0q-0.09375 0 -0.171875 -0.125q-0.0625 -0.125 -0.0625 -0.265625q0 -0.046875 0.046875 -0.125q0.0625 -0.078125 0.09375 -0.09375q0.390625 -0.28125 0.71875 -0.5625q0.34375 -0.28125 0.609375 -0.546875q0.265625 -0.28125 0.453125 -0.5q0.09375 -0.09375 0.15625 -0.15625q0.078125 -0.078125 0.171875 -0.078125q0.109375 0 0.1875 0.046875q0.09375 0.03125 0.078125 0.171875l-0.09375 0.90625q-0.03125 0.21875 0.09375 0.296875q0.125 0.078125 0.375 0.078125l2.28125 0q0.078125 0 0.140625 0.140625q0.0625 0.125 0.0625 0.296875q0 0.1875 -0.0625 0.359375q-0.0625 0.15625 -0.140625 0.15625l-1.96875 0q-0.5 0 -0.65625 0.09375q-0.15625 0.078125 -0.15625 0.46875l0 3.9375q0 0.8125 0.34375 1.28125q0.34375 0.453125 0.984375 0.453125q0.578125 0 0.890625 -0.09375q0.328125 -0.09375 0.59375 -0.28125q0.03125 -0.03125 0.078125 -0.03125q0.078125 0 0.109375 0.09375q0.03125 0.078125 0.03125 0.1875q0 0.09375 -0.34375 0.40625q-0.328125 0.296875 -0.859375 0.546875q-0.515625 0.265625 -1.140625 0.265625zm3.2799988 -0.21875q-0.40625 0 -0.40625 -0.21875q0 -0.1875 0.46875 -0.328125q0.296875 -0.09375 0.5625 -0.25q0.28125 -0.171875 0.296875 -0.5625l0 -10.015625q0 -0.546875 -0.1875 -0.953125q-0.171875 -0.421875 -0.703125 -0.5q-0.171875 -0.03125 -0.171875 -0.28125q0 -0.171875 0.15625 -0.234375q0.28125 -0.09375 0.671875 -0.21875q0.390625 -0.125 0.8125 -0.265625q0.421875 -0.15625 0.734375 -0.296875q0.078125 -0.03125 0.125 -0.03125q0.0625 0 0.09375 0.046875q0.046875 0.03125 0.046875 0.09375q0 0.109375 -0.046875 0.328125q-0.046875 0.21875 -0.09375 0.765625q-0.046875 0.546875 -0.046875 1.625l0 3.46875q0 0.328125 0.03125 0.46875q0.03125 0.140625 0.109375 0.28125q0.328125 -0.25 0.796875 -0.53125q0.46875 -0.296875 1.046875 -0.515625q0.578125 -0.21875 1.203125 -0.21875q0.984375 0 1.625 0.78125q0.65625 0.765625 0.65625 1.9375l0 4.203125q0 0.40625 0.25 0.59375q0.265625 0.1875 0.5625 0.28125q0.21875 0.0625 0.34375 0.140625q0.125 0.0625 0.125 0.1875q0 0.21875 -0.40625 0.21875q-0.390625 0 -0.609375 -0.03125q-0.203125 -0.03125 -0.40625 -0.046875q-0.1875 -0.03125 -0.546875 -0.03125q-0.328125 0 -0.53125 0.03125q-0.203125 0.015625 -0.421875 0.046875q-0.203125 0.03125 -0.609375 0.03125q-0.390625 0 -0.390625 -0.21875q0 -0.140625 0.109375 -0.1875q0.125 -0.0625 0.34375 -0.140625q0.3125 -0.09375 0.546875 -0.28125q0.234375 -0.1875 0.234375 -0.59375l0 -4.078125q0 -0.5 -0.296875 -0.90625q-0.28125 -0.421875 -0.703125 -0.65625q-0.421875 -0.234375 -0.859375 -0.234375q-0.375 0 -0.875 0.109375q-0.5 0.109375 -0.78125 0.328125q-0.328125 0.25 -0.4375 0.53125q-0.109375 0.28125 -0.109375 0.90625l0 4.0625q0.03125 0.390625 0.25 0.5625q0.234375 0.15625 0.53125 0.25q0.21875 0.0625 0.328125 0.140625q0.109375 0.0625 0.109375 0.1875q0 0.21875 -0.390625 0.21875q-0.40625 0 -0.609375 -0.03125q-0.1875 -0.03125 -0.375 -0.046875q-0.171875 -0.03125 -0.53125 -0.03125q-0.34375 0 -0.5625 0.03125q-0.203125 0.015625 -0.4375 0.046875q-0.21875 0.03125 -0.625 0.03125zm13.784363 0.234375q-1.109375 0 -1.9375 -0.53125q-0.8125 -0.546875 -1.28125 -1.53125q-0.453125 -1.0 -0.453125 -2.296875q0 -1.15625 0.53125 -2.109375q0.53125 -0.953125 1.40625 -1.53125q0.890625 -0.578125 1.921875 -0.578125q0.8125 0 1.421875 0.328125q0.625 0.3125 0.96875 0.890625q0.359375 0.5625 0.359375 1.296875q0 0.625 -0.609375 0.625l-4.21875 0q-0.28125 0 -0.390625 0.15625q-0.109375 0.140625 -0.109375 0.578125q0 0.96875 0.421875 1.765625q0.421875 0.78125 1.125 1.25q0.703125 0.46875 1.53125 0.46875q0.609375 0 1.09375 -0.21875q0.5 -0.234375 0.875 -0.671875q0.078125 -0.109375 0.109375 -0.140625q0.046875 -0.03125 0.109375 -0.03125q0.15625 0 0.15625 0.203125q0 0.375 -0.359375 0.84375q-0.296875 0.375 -0.71875 0.65625q-0.421875 0.28125 -0.921875 0.421875q-0.5 0.15625 -1.03125 0.15625zm-1.84375 -6.0625l1.8125 0q0.484375 0 0.828125 -0.015625q0.34375 -0.015625 0.65625 -0.078125q0.09375 -0.015625 0.125 -0.125q0.03125 -0.109375 0.03125 -0.3125q0 -0.578125 -0.515625 -0.984375q-0.5 -0.421875 -1.203125 -0.421875q-0.453125 0 -0.921875 0.28125q-0.453125 0.265625 -0.75 0.671875q-0.296875 0.390625 -0.296875 0.796875q0 0.1875 0.234375 0.1875zm8.253113 6.046875q-0.609375 0 -1.15625 -0.1875q-0.53125 -0.1875 -0.921875 -0.53125q-0.09375 -0.21875 -0.15625 -0.734375q-0.046875 -0.53125 -0.0625 -0.875q0 -0.171875 0.265625 -0.171875q0.078125 0 0.140625 0.03125q0.078125 0.03125 0.09375 0.109375q0.265625 0.984375 0.828125 1.40625q0.578125 0.40625 1.15625 0.40625q0.578125 0 0.984375 -0.390625q0.40625 -0.390625 0.40625 -0.96875q0 -0.53125 -0.359375 -0.921875q-0.359375 -0.390625 -1.25 -0.953125q-0.6875 -0.421875 -1.109375 -0.796875q-0.421875 -0.390625 -0.609375 -0.78125q-0.1875 -0.40625 -0.1875 -0.90625q0 -0.640625 0.296875 -1.15625q0.3125 -0.515625 0.90625 -0.828125q0.59375 -0.3125 1.5 -0.3125q0.59375 0 1.0 0.125q0.40625 0.109375 0.59375 0.25q0.171875 0.21875 0.28125 0.703125q0.109375 0.46875 0.109375 0.890625q0 0.125 -0.203125 0.125q-0.125 0 -0.234375 -0.046875q-0.109375 -0.046875 -0.140625 -0.125q-0.265625 -0.65625 -0.65625 -1.0q-0.390625 -0.359375 -0.96875 -0.359375q-0.5 0 -0.890625 0.296875q-0.390625 0.296875 -0.390625 0.875q0 0.46875 0.28125 0.828125q0.296875 0.359375 1.09375 0.8125q1.171875 0.671875 1.734375 1.25q0.5625 0.5625 0.5625 1.5q0 1.078125 -0.8125 1.765625q-0.8125 0.671875 -2.125 0.671875zm7.8506165 0.015625q-1.109375 0 -1.9375 -0.53125q-0.8125 -0.546875 -1.28125 -1.53125q-0.453125 -1.0 -0.453125 -2.296875q0 -1.15625 0.53125 -2.109375q0.53125 -0.953125 1.40625 -1.53125q0.890625 -0.578125 1.921875 -0.578125q0.8125 0 1.421875 0.328125q0.625 0.3125 0.96875 0.890625q0.359375 0.5625 0.359375 1.296875q0 0.625 -0.609375 0.625l-4.21875 0q-0.28125 0 -0.390625 0.15625q-0.109375 0.140625 -0.109375 0.578125q0 0.96875 0.421875 1.765625q0.421875 0.78125 1.125 1.25q0.703125 0.46875 1.53125 0.46875q0.609375 0 1.09375 -0.21875q0.5 -0.234375 0.875 -0.671875q0.078125 -0.109375 0.109375 -0.140625q0.046875 -0.03125 0.109375 -0.03125q0.15625 0 0.15625 0.203125q0 0.375 -0.359375 0.84375q-0.296875 0.375 -0.71875 0.65625q-0.421875 0.28125 -0.921875 0.421875q-0.5 0.15625 -1.03125 0.15625zm-1.84375 -6.0625l1.8125 0q0.484375 0 0.828125 -0.015625q0.34375 -0.015625 0.65625 -0.078125q0.09375 -0.015625 0.125 -0.125q0.03125 -0.109375 0.03125 -0.3125q0 -0.578125 -0.515625 -0.984375q-0.5 -0.421875 -1.203125 -0.421875q-0.453125 0 -0.921875 0.28125q-0.453125 0.265625 -0.75 0.671875q-0.296875 0.390625 -0.296875 0.796875q0 0.1875 0.234375 0.1875zm10.253113 5.828125q-0.1875 0 -0.296875 -0.0625q-0.09375 -0.046875 -0.09375 -0.15625q0 -0.15625 0.125 -0.21875q0.125 -0.0625 0.328125 -0.109375q0.46875 -0.09375 0.65625 -0.28125q0.203125 -0.1875 0.203125 -0.59375l0 -5.640625q-0.203125 0 -0.46875 0q-0.25 -0.015625 -0.5625 -0.046875q-0.0625 -0.015625 -0.171875 -0.125q-0.109375 -0.125 -0.109375 -0.234375q0 -0.03125 0.046875 -0.0625q0.0625 -0.03125 0.09375 -0.046875q0.359375 -0.1875 0.609375 -0.328125q0.265625 -0.140625 0.5625 -0.28125q0 -1.734375 0.421875 -2.890625q0.4375 -1.171875 1.109375 -1.84375q0.6875 -0.6875 1.453125 -0.96875q0.765625 -0.296875 1.421875 -0.296875q1.109375 0 1.65625 0.34375q0.546875 0.34375 0.546875 0.859375q0 0.40625 -0.203125 0.609375q-0.203125 0.1875 -0.484375 0.1875q-0.171875 0 -0.328125 -0.140625q-0.15625 -0.140625 -0.34375 -0.3125q-0.265625 -0.265625 -0.65625 -0.484375q-0.375 -0.234375 -1.03125 -0.234375q-0.9375 0 -1.546875 0.828125q-0.609375 0.8125 -0.609375 2.515625l0 1.75q0 0.125 0.0625 0.171875q0.078125 0.03125 0.15625 0.03125l2.5 0q0.09375 0 0.171875 0.0625q0.09375 0.0625 0.09375 0.15625q0 0.140625 -0.03125 0.3125q-0.03125 0.15625 -0.09375 0.265625q-0.0625 0.15625 -0.1875 0.15625l-2.296875 0q-0.234375 0 -0.3125 0.078125q-0.0625 0.0625 -0.0625 0.1875l0 5.421875q0 0.40625 0.25 0.59375q0.265625 0.1875 1.0625 0.28125q0.46875 0.0625 0.46875 0.328125q0 0.109375 -0.109375 0.15625q-0.09375 0.0625 -0.296875 0.0625q-0.59375 0 -1.0625 -0.0625q-0.453125 -0.046875 -0.96875 -0.046875q-0.34375 0 -0.5625 0.03125q-0.21875 0.015625 -0.46875 0.046875q-0.234375 0.03125 -0.640625 0.03125zm9.672501 0.21875q-1.125 0 -2.03125 -0.515625q-0.890625 -0.53125 -1.421875 -1.4375q-0.53125 -0.90625 -0.53125 -2.0625q0 -0.84375 0.328125 -1.640625q0.328125 -0.8125 0.921875 -1.46875q0.609375 -0.65625 1.40625 -1.046875q0.796875 -0.390625 1.71875 -0.390625q1.15625 0 2.078125 0.5625q0.9375 0.5625 1.484375 1.46875q0.5625 0.90625 0.5625 1.984375q0 1.171875 -0.515625 2.21875q-0.5 1.03125 -1.5 1.6875q-1.0 0.640625 -2.5 0.640625zm0.40625 -0.59375q0.6875 0 1.21875 -0.265625q0.546875 -0.265625 0.84375 -0.84375q0.25 -0.453125 0.328125 -1.109375q0.078125 -0.671875 0.078125 -1.25q0 -0.953125 -0.359375 -1.84375q-0.34375 -0.890625 -0.984375 -1.453125q-0.625 -0.578125 -1.484375 -0.578125q-0.53125 0 -0.96875 0.171875q-0.421875 0.171875 -0.78125 0.625q-0.40625 0.5 -0.53125 1.21875q-0.109375 0.71875 -0.109375 1.4375q0 0.984375 0.359375 1.875q0.359375 0.890625 0.96875 1.453125q0.625 0.5625 1.421875 0.5625zm12.118744 0.6875q-0.125 0 -0.125 -0.15625q0 -0.203125 0.046875 -0.59375q0.046875 -0.390625 0.046875 -0.640625q0 -0.046875 0 -0.078125q0 -0.03125 0 -0.046875q-0.78125 0.765625 -1.578125 1.09375q-0.78125 0.328125 -1.71875 0.328125q-0.640625 0 -1.171875 -0.28125q-0.515625 -0.265625 -0.8125 -0.78125q-0.296875 -0.53125 -0.296875 -1.3125l0 -4.0625q0 -0.4375 -0.203125 -0.703125q-0.203125 -0.265625 -0.65625 -0.4375q-0.109375 -0.046875 -0.1875 -0.09375q-0.078125 -0.0625 -0.078125 -0.234375q0 -0.171875 0.09375 -0.234375q0.09375 -0.0625 0.203125 -0.078125q0.6875 -0.046875 1.046875 -0.109375q0.375 -0.078125 0.9375 -0.21875q0.0625 -0.015625 0.09375 -0.015625q0.03125 0 0.0625 0q0.21875 0 0.203125 0.28125q-0.0625 0.453125 -0.09375 0.765625q-0.03125 0.3125 -0.03125 0.78125l0 3.890625q0 0.484375 0.234375 0.890625q0.25 0.40625 0.640625 0.671875q0.390625 0.265625 0.8125 0.265625q0.515625 0 0.90625 -0.0625q0.390625 -0.0625 0.765625 -0.34375q0.234375 -0.15625 0.5625 -0.515625q0.34375 -0.359375 0.34375 -0.984375l0 -3.65625q0 -0.421875 -0.25 -0.625q-0.25 -0.21875 -0.578125 -0.296875q-0.3125 -0.078125 -0.515625 -0.078125q-0.171875 0 -0.296875 -0.0625q-0.125 -0.078125 -0.125 -0.28125q0 -0.171875 0.125 -0.234375q0.140625 -0.0625 0.296875 -0.0625q0.625 -0.015625 1.03125 -0.046875q0.40625 -0.03125 0.734375 -0.09375q0.34375 -0.078125 0.703125 -0.1875q0.03125 -0.015625 0.09375 -0.015625q0.0625 -0.015625 0.109375 -0.015625q0.25 0 0.25 0.21875q0 0.015625 -0.015625 0.078125q0 0.046875 -0.015625 0.09375q-0.03125 0.0625 -0.0625 0.34375q-0.03125 0.28125 -0.0625 0.578125q-0.015625 0.296875 -0.015625 0.46875l0 4.609375q0 0.546875 0.109375 0.78125q0.109375 0.21875 0.25 0.21875q0.15625 0 0.46875 -0.015625q0.3125 -0.03125 0.453125 -0.03125q0.09375 0 0.1875 0.046875q0.109375 0.03125 0.109375 0.203125q0 0.15625 -0.078125 0.21875q-0.078125 0.046875 -0.203125 0.0625q-0.78125 0.109375 -1.34375 0.3125q-0.5625 0.1875 -1.0 0.375q-0.0625 0.015625 -0.1875 0.0625q-0.109375 0.046875 -0.21875 0.046875zm4.211853 -0.3125q-0.203125 0 -0.3125 -0.0625q-0.09375 -0.046875 -0.09375 -0.15625q0 -0.15625 0.109375 -0.203125q0.125 -0.0625 0.359375 -0.125q0.375 -0.09375 0.5625 -0.28125q0.1875 -0.1875 0.1875 -0.46875l0 -4.3125q0 -0.53125 -0.15625 -0.921875q-0.15625 -0.40625 -0.65625 -0.515625q-0.078125 -0.015625 -0.140625 -0.09375q-0.0625 -0.078125 -0.0625 -0.15625q0 -0.203125 0.171875 -0.25q0.53125 -0.15625 1.09375 -0.46875q0.578125 -0.3125 0.890625 -0.5q0.125 -0.09375 0.1875 -0.109375q0.078125 -0.03125 0.109375 -0.03125q0.109375 0 0.109375 0.140625q0 0.046875 -0.015625 0.296875q-0.015625 0.234375 -0.03125 0.5625q0 0.3125 -0.015625 0.640625q0 0.03125 0.03125 0.03125q0.328125 -0.390625 0.71875 -0.6875q0.390625 -0.3125 0.796875 -0.484375q0.40625 -0.1875 0.796875 -0.1875q0.421875 0 0.6875 0.1875q0.265625 0.171875 0.265625 0.453125q0 0.203125 -0.109375 0.453125q-0.109375 0.234375 -0.296875 0.421875q-0.171875 0.171875 -0.375 0.171875q-0.109375 0 -0.25 -0.046875q-0.140625 -0.0625 -0.3125 -0.140625q-0.15625 -0.0625 -0.3125 -0.109375q-0.15625 -0.0625 -0.328125 -0.0625q-0.46875 0 -0.921875 0.34375q-0.453125 0.328125 -0.453125 1.328125l0 4.046875q0 0.25 0.28125 0.421875q0.28125 0.171875 0.78125 0.328125q0.21875 0.0625 0.328125 0.125q0.125 0.0625 0.125 0.203125q0 0.21875 -0.390625 0.21875q-0.609375 0 -0.921875 -0.0625q-0.296875 -0.046875 -0.828125 -0.046875q-0.328125 0 -0.546875 0.03125q-0.203125 0.015625 -0.4375 0.046875q-0.234375 0.03125 -0.625 0.03125zm10.570618 0q-0.171875 0 -0.28125 -0.0625q-0.109375 -0.046875 -0.109375 -0.15625q0 -0.15625 0.109375 -0.203125q0.125 -0.0625 0.34375 -0.125q0.296875 -0.078125 0.578125 -0.21875q0.28125 -0.140625 0.28125 -0.53125l0 -4.3125q0 -0.53125 -0.109375 -0.90625q-0.109375 -0.390625 -0.625 -0.53125q-0.078125 -0.03125 -0.140625 -0.078125q-0.0625 -0.0625 -0.0625 -0.171875q0 -0.21875 0.1875 -0.25q0.6875 -0.171875 1.125 -0.4375q0.453125 -0.265625 0.875 -0.578125q0.046875 -0.046875 0.09375 -0.0625q0.0625 -0.03125 0.125 -0.03125q0.03125 0 0.0625 0.046875q0.03125 0.03125 0.03125 0.09375q0 0.140625 -0.046875 0.578125q-0.046875 0.421875 -0.046875 0.6875q0 0.09375 0 0.171875q0.015625 0.0625 0.03125 0.078125q0.703125 -0.65625 1.484375 -1.0q0.796875 -0.34375 1.734375 -0.34375q0.984375 0 1.625 0.796875q0.640625 0.796875 0.640625 1.984375l0 4.265625q0 0.390625 0.28125 0.53125q0.28125 0.125 0.578125 0.21875q0.15625 0.0625 0.296875 0.140625q0.15625 0.0625 0.15625 0.21875q0 0.125 -0.140625 0.15625q-0.140625 0.03125 -0.25 0.03125q-0.40625 0 -0.625 -0.03125q-0.21875 -0.03125 -0.421875 -0.046875q-0.203125 -0.03125 -0.5625 -0.03125q-0.328125 0 -0.5625 0.03125q-0.21875 0.015625 -0.453125 0.046875q-0.21875 0.03125 -0.625 0.03125q-0.09375 0 -0.25 -0.03125q-0.140625 -0.03125 -0.140625 -0.15625q0 -0.15625 0.140625 -0.21875q0.15625 -0.078125 0.3125 -0.140625q0.296875 -0.09375 0.578125 -0.21875q0.28125 -0.140625 0.28125 -0.53125l0 -4.203125q0 -0.875 -0.484375 -1.359375q-0.484375 -0.5 -1.3125 -0.515625q-0.71875 0 -1.265625 0.234375q-0.53125 0.21875 -0.953125 0.5625q-0.078125 0.078125 -0.125 0.203125q-0.03125 0.125 -0.03125 0.25l0 4.828125q0 0.390625 0.28125 0.53125q0.28125 0.140625 0.578125 0.21875q0.453125 0.125 0.453125 0.328125q0 0.109375 -0.109375 0.15625q-0.09375 0.0625 -0.28125 0.0625q-0.40625 0 -0.640625 -0.03125q-0.21875 -0.03125 -0.421875 -0.046875q-0.203125 -0.03125 -0.5625 -0.03125q-0.34375 0 -0.5625 0.03125q-0.203125 0.015625 -0.4375 0.046875q-0.21875 0.03125 -0.625 0.03125zm13.950623 0.234375q-1.109375 0 -1.9375 -0.53125q-0.8125 -0.546875 -1.28125 -1.53125q-0.453125 -1.0 -0.453125 -2.296875q0 -1.15625 0.53125 -2.109375q0.53125 -0.953125 1.40625 -1.53125q0.890625 -0.578125 1.921875 -0.578125q0.8125 0 1.421875 0.328125q0.625 0.3125 0.96875 0.890625q0.359375 0.5625 0.359375 1.296875q0 0.625 -0.609375 0.625l-4.21875 0q-0.28125 0 -0.390625 0.15625q-0.109375 0.140625 -0.109375 0.578125q0 0.96875 0.421875 1.765625q0.421875 0.78125 1.125 1.25q0.703125 0.46875 1.53125 0.46875q0.609375 0 1.09375 -0.21875q0.5 -0.234375 0.875 -0.671875q0.078125 -0.109375 0.109375 -0.140625q0.046875 -0.03125 0.109375 -0.03125q0.15625 0 0.15625 0.203125q0 0.375 -0.359375 0.84375q-0.296875 0.375 -0.71875 0.65625q-0.421875 0.28125 -0.921875 0.421875q-0.5 0.15625 -1.03125 0.15625zm-1.84375 -6.0625l1.8125 0q0.484375 0 0.828125 -0.015625q0.34375 -0.015625 0.65625 -0.078125q0.09375 -0.015625 0.125 -0.125q0.03125 -0.109375 0.03125 -0.3125q0 -0.578125 -0.515625 -0.984375q-0.5 -0.421875 -1.203125 -0.421875q-0.453125 0 -0.921875 0.28125q-0.453125 0.265625 -0.75 0.671875q-0.296875 0.390625 -0.296875 0.796875q0 0.1875 0.234375 0.1875zm12.690613 6.140625q-0.125 0 -0.125 -0.15625q0 -0.203125 0.046875 -0.59375q0.046875 -0.390625 0.046875 -0.640625q0 -0.046875 0 -0.078125q0 -0.03125 0 -0.046875q-0.78125 0.765625 -1.578125 1.09375q-0.78125 0.328125 -1.71875 0.328125q-0.640625 0 -1.171875 -0.28125q-0.515625 -0.265625 -0.8125 -0.78125q-0.296875 -0.53125 -0.296875 -1.3125l0 -4.0625q0 -0.4375 -0.203125 -0.703125q-0.203125 -0.265625 -0.65625 -0.4375q-0.109375 -0.046875 -0.1875 -0.09375q-0.078125 -0.0625 -0.078125 -0.234375q0 -0.171875 0.09375 -0.234375q0.09375 -0.0625 0.203125 -0.078125q0.6875 -0.046875 1.046875 -0.109375q0.375 -0.078125 0.9375 -0.21875q0.0625 -0.015625 0.09375 -0.015625q0.03125 0 0.0625 0q0.21875 0 0.203125 0.28125q-0.0625 0.453125 -0.09375 0.765625q-0.03125 0.3125 -0.03125 0.78125l0 3.890625q0 0.484375 0.234375 0.890625q0.25 0.40625 0.640625 0.671875q0.390625 0.265625 0.8125 0.265625q0.515625 0 0.90625 -0.0625q0.390625 -0.0625 0.765625 -0.34375q0.234375 -0.15625 0.5625 -0.515625q0.34375 -0.359375 0.34375 -0.984375l0 -3.65625q0 -0.421875 -0.25 -0.625q-0.25 -0.21875 -0.578125 -0.296875q-0.3125 -0.078125 -0.515625 -0.078125q-0.171875 0 -0.296875 -0.0625q-0.125 -0.078125 -0.125 -0.28125q0 -0.171875 0.125 -0.234375q0.140625 -0.0625 0.296875 -0.0625q0.625 -0.015625 1.03125 -0.046875q0.40625 -0.03125 0.734375 -0.09375q0.34375 -0.078125 0.703125 -0.1875q0.03125 -0.015625 0.09375 -0.015625q0.0625 -0.015625 0.109375 -0.015625q0.25 0 0.25 0.21875q0 0.015625 -0.015625 0.078125q0 0.046875 -0.015625 0.09375q-0.03125 0.0625 -0.0625 0.34375q-0.03125 0.28125 -0.0625 0.578125q-0.015625 0.296875 -0.015625 0.46875l0 4.609375q0 0.546875 0.109375 0.78125q0.109375 0.21875 0.25 0.21875q0.15625 0 0.46875 -0.015625q0.3125 -0.03125 0.453125 -0.03125q0.09375 0 0.1875 0.046875q0.109375 0.03125 0.109375 0.203125q0 0.15625 -0.078125 0.21875q-0.078125 0.046875 -0.203125 0.0625q-0.78125 0.109375 -1.34375 0.3125q-0.5625 0.1875 -1.0 0.375q-0.0625 0.015625 -0.1875 0.0625q-0.109375 0.046875 -0.21875 0.046875zm4.2118835 -0.3125q-0.203125 0 -0.3125 -0.0625q-0.09375 -0.046875 -0.09375 -0.15625q0 -0.15625 0.109375 -0.203125q0.125 -0.0625 0.359375 -0.125q0.375 -0.09375 0.5625 -0.28125q0.1875 -0.1875 0.1875 -0.46875l0 -4.3125q0 -0.53125 -0.15625 -0.921875q-0.15625 -0.40625 -0.65625 -0.515625q-0.078125 -0.015625 -0.140625 -0.09375q-0.0625 -0.078125 -0.0625 -0.15625q0 -0.203125 0.171875 -0.25q0.53125 -0.15625 1.09375 -0.46875q0.578125 -0.3125 0.890625 -0.5q0.125 -0.09375 0.1875 -0.109375q0.078125 -0.03125 0.109375 -0.03125q0.109375 0 0.109375 0.140625q0 0.046875 -0.015625 0.296875q-0.015625 0.234375 -0.03125 0.5625q0 0.3125 -0.015625 0.640625q0 0.03125 0.03125 0.03125q0.328125 -0.390625 0.71875 -0.6875q0.390625 -0.3125 0.796875 -0.484375q0.40625 -0.1875 0.796875 -0.1875q0.421875 0 0.6875 0.1875q0.265625 0.171875 0.265625 0.453125q0 0.203125 -0.109375 0.453125q-0.109375 0.234375 -0.296875 0.421875q-0.171875 0.171875 -0.375 0.171875q-0.109375 0 -0.25 -0.046875q-0.140625 -0.0625 -0.3125 -0.140625q-0.15625 -0.0625 -0.3125 -0.109375q-0.15625 -0.0625 -0.328125 -0.0625q-0.46875 0 -0.921875 0.34375q-0.453125 0.328125 -0.453125 1.328125l0 4.046875q0 0.25 0.28125 0.421875q0.28125 0.171875 0.78125 0.328125q0.21875 0.0625 0.328125 0.125q0.125 0.0625 0.125 0.203125q0 0.21875 -0.390625 0.21875q-0.609375 0 -0.921875 -0.0625q-0.296875 -0.046875 -0.828125 -0.046875q-0.328125 0 -0.546875 0.03125q-0.203125 0.015625 -0.4375 0.046875q-0.234375 0.03125 -0.625 0.03125zm10.383118 0.21875q-1.125 0 -2.03125 -0.515625q-0.890625 -0.53125 -1.421875 -1.4375q-0.53125 -0.90625 -0.53125 -2.0625q0 -0.84375 0.328125 -1.640625q0.328125 -0.8125 0.921875 -1.46875q0.609375 -0.65625 1.40625 -1.046875q0.796875 -0.390625 1.71875 -0.390625q1.15625 0 2.078125 0.5625q0.9375 0.5625 1.484375 1.46875q0.5625 0.90625 0.5625 1.984375q0 1.171875 -0.515625 2.21875q-0.5 1.03125 -1.5 1.6875q-1.0 0.640625 -2.5 0.640625zm0.40625 -0.59375q0.6875 0 1.21875 -0.265625q0.546875 -0.265625 0.84375 -0.84375q0.25 -0.453125 0.328125 -1.109375q0.078125 -0.671875 0.078125 -1.25q0 -0.953125 -0.359375 -1.84375q-0.34375 -0.890625 -0.984375 -1.453125q-0.625 -0.578125 -1.484375 -0.578125q-0.53125 0 -0.96875 0.171875q-0.421875 0.171875 -0.78125 0.625q-0.40625 0.5 -0.53125 1.21875q-0.109375 0.71875 -0.109375 1.4375q0 0.984375 0.359375 1.875q0.359375 0.890625 0.96875 1.453125q0.625 0.5625 1.421875 0.5625zm5.681244 0.375q-0.171875 0 -0.28125 -0.0625q-0.109375 -0.046875 -0.109375 -0.15625q0 -0.15625 0.109375 -0.203125q0.125 -0.0625 0.34375 -0.125q0.296875 -0.078125 0.578125 -0.21875q0.28125 -0.140625 0.28125 -0.53125l0 -4.3125q0 -0.53125 -0.109375 -0.90625q-0.109375 -0.390625 -0.625 -0.53125q-0.078125 -0.03125 -0.140625 -0.078125q-0.0625 -0.0625 -0.0625 -0.171875q0 -0.21875 0.1875 -0.25q0.6875 -0.171875 1.125 -0.4375q0.453125 -0.265625 0.875 -0.578125q0.046875 -0.046875 0.09375 -0.0625q0.0625 -0.03125 0.125 -0.03125q0.03125 0 0.0625 0.046875q0.03125 0.03125 0.03125 0.09375q0 0.140625 -0.046875 0.578125q-0.046875 0.421875 -0.046875 0.6875q0 0.09375 0 0.171875q0.015625 0.0625 0.03125 0.078125q0.703125 -0.65625 1.484375 -1.0q0.796875 -0.34375 1.734375 -0.34375q0.984375 0 1.625 0.796875q0.640625 0.796875 0.640625 1.984375l0 4.265625q0 0.390625 0.28125 0.53125q0.28125 0.125 0.578125 0.21875q0.15625 0.0625 0.296875 0.140625q0.15625 0.0625 0.15625 0.21875q0 0.125 -0.140625 0.15625q-0.140625 0.03125 -0.25 0.03125q-0.40625 0 -0.625 -0.03125q-0.21875 -0.03125 -0.421875 -0.046875q-0.203125 -0.03125 -0.5625 -0.03125q-0.328125 0 -0.5625 0.03125q-0.21875 0.015625 -0.453125 0.046875q-0.21875 0.03125 -0.625 0.03125q-0.09375 0 -0.25 -0.03125q-0.140625 -0.03125 -0.140625 -0.15625q0 -0.15625 0.140625 -0.21875q0.15625 -0.078125 0.3125 -0.140625q0.296875 -0.09375 0.578125 -0.21875q0.28125 -0.140625 0.28125 -0.53125l0 -4.203125q0 -0.875 -0.484375 -1.359375q-0.484375 -0.5 -1.3125 -0.515625q-0.71875 0 -1.265625 0.234375q-0.53125 0.21875 -0.953125 0.5625q-0.078125 0.078125 -0.125 0.203125q-0.03125 0.125 -0.03125 0.25l0 4.828125q0 0.390625 0.28125 0.53125q0.28125 0.140625 0.578125 0.21875q0.453125 0.125 0.453125 0.328125q0 0.109375 -0.109375 0.15625q-0.09375 0.0625 -0.28125 0.0625q-0.40625 0 -0.640625 -0.03125q-0.21875 -0.03125 -0.421875 -0.046875q-0.203125 -0.03125 -0.5625 -0.03125q-0.34375 0 -0.5625 0.03125q-0.203125 0.015625 -0.4375 0.046875q-0.21875 0.03125 -0.625 0.03125zm12.559998 0.21875q-0.609375 0 -1.15625 -0.1875q-0.53125 -0.1875 -0.921875 -0.53125q-0.09375 -0.21875 -0.15625 -0.734375q-0.046875 -0.53125 -0.0625 -0.875q0 -0.171875 0.265625 -0.171875q0.078125 0 0.140625 0.03125q0.078125 0.03125 0.09375 0.109375q0.265625 0.984375 0.828125 1.40625q0.578125 0.40625 1.15625 0.40625q0.578125 0 0.984375 -0.390625q0.40625 -0.390625 0.40625 -0.96875q0 -0.53125 -0.359375 -0.921875q-0.359375 -0.390625 -1.25 -0.953125q-0.6875 -0.421875 -1.109375 -0.796875q-0.421875 -0.390625 -0.609375 -0.78125q-0.1875 -0.40625 -0.1875 -0.90625q0 -0.640625 0.296875 -1.15625q0.3125 -0.515625 0.90625 -0.828125q0.59375 -0.3125 1.5 -0.3125q0.59375 0 1.0 0.125q0.40625 0.109375 0.59375 0.25q0.171875 0.21875 0.28125 0.703125q0.109375 0.46875 0.109375 0.890625q0 0.125 -0.203125 0.125q-0.125 0 -0.234375 -0.046875q-0.109375 -0.046875 -0.140625 -0.125q-0.265625 -0.65625 -0.65625 -1.0q-0.390625 -0.359375 -0.96875 -0.359375q-0.5 0 -0.890625 0.296875q-0.390625 0.296875 -0.390625 0.875q0 0.46875 0.28125 0.828125q0.296875 0.359375 1.09375 0.8125q1.171875 0.671875 1.734375 1.25q0.5625 0.5625 0.5625 1.5q0 1.078125 -0.8125 1.765625q-0.8125 0.671875 -2.125 0.671875zm8.381866 5.421875q-0.09375 0 -0.265625 -0.03125q-0.15625 -0.03125 -0.15625 -0.15625q0 -0.15625 0.15625 -0.234375q0.15625 -0.0625 0.3125 -0.125q0.296875 -0.09375 0.578125 -0.234375q0.28125 -0.125 0.28125 -0.515625l0 -10.140625q0 -0.171875 -0.09375 -0.484375q-0.09375 -0.328125 -0.296875 -0.625q-0.1875 -0.296875 -0.53125 -0.359375q-0.078125 -0.015625 -0.125 -0.09375q-0.03125 -0.078125 -0.03125 -0.15625q0 -0.109375 0.03125 -0.171875q0.046875 -0.0625 0.109375 -0.078125q0.75 -0.171875 1.28125 -0.375q0.546875 -0.21875 1.03125 -0.421875q0.015625 0 0.015625 0q0 -0.015625 0.03125 -0.015625q0.03125 0 0.0625 0.0625q0.046875 0.046875 0.046875 0.109375q0 0.1875 -0.046875 0.578125q-0.046875 0.390625 -0.046875 0.625q0 0.15625 0.015625 0.1875q0.203125 -0.203125 0.734375 -0.515625q0.53125 -0.3125 1.203125 -0.5625q0.6875 -0.25 1.3125 -0.25q1.03125 0 1.765625 0.546875q0.734375 0.546875 1.125 1.421875q0.390625 0.875 0.390625 1.8125q0 0.90625 -0.34375 1.75q-0.34375 0.84375 -0.96875 1.53125q-0.609375 0.671875 -1.4375 1.09375q-0.8125 0.40625 -1.75 0.40625q-0.28125 0 -0.671875 -0.09375q-0.390625 -0.09375 -0.765625 -0.234375q-0.375 -0.140625 -0.5625 -0.3125q-0.03125 0 -0.046875 0.234375q-0.015625 0.21875 -0.03125 0.46875q-0.015625 0.25 -0.015625 0.3125l0 3.75q0 0.25 0.203125 0.390625q0.21875 0.15625 0.484375 0.21875q0.28125 0.078125 0.484375 0.140625q0.15625 0.0625 0.296875 0.125q0.15625 0.078125 0.15625 0.234375q0 0.125 -0.15625 0.15625q-0.15625 0.03125 -0.28125 0.03125q-0.578125 0 -0.96875 -0.0625q-0.390625 -0.046875 -0.90625 -0.046875q-0.34375 0 -0.5625 0.015625q-0.203125 0.03125 -0.421875 0.0625q-0.21875 0.03125 -0.625 0.03125zm4.6875 -6.046875q0.296875 0 0.71875 -0.171875q0.4375 -0.1875 0.859375 -0.578125q0.4375 -0.40625 0.71875 -1.078125q0.296875 -0.6875 0.296875 -1.6875q0 -1.15625 -0.296875 -1.859375q-0.296875 -0.703125 -0.75 -1.0625q-0.4375 -0.359375 -0.890625 -0.46875q-0.453125 -0.125 -0.78125 -0.125q-0.484375 0 -1.0 0.203125q-0.5 0.1875 -0.859375 0.4375q-0.34375 0.25 -0.34375 0.390625q0 0.4375 -0.015625 0.890625q0 0.453125 -0.015625 0.875q0 0.421875 -0.015625 0.75q-0.015625 0.328125 -0.015625 0.515625q0 0.796875 0.375 1.484375q0.375 0.671875 0.921875 1.078125q0.546875 0.40625 1.09375 0.40625zm9.161224 0.640625q-1.109375 0 -1.9375 -0.53125q-0.8125 -0.546875 -1.28125 -1.53125q-0.453125 -1.0 -0.453125 -2.296875q0 -1.15625 0.53125 -2.109375q0.53125 -0.953125 1.40625 -1.53125q0.890625 -0.578125 1.921875 -0.578125q0.8125 0 1.421875 0.328125q0.625 0.3125 0.96875 0.890625q0.359375 0.5625 0.359375 1.296875q0 0.625 -0.609375 0.625l-4.21875 0q-0.28125 0 -0.390625 0.15625q-0.109375 0.140625 -0.109375 0.578125q0 0.96875 0.421875 1.765625q0.421875 0.78125 1.125 1.25q0.703125 0.46875 1.53125 0.46875q0.609375 0 1.09375 -0.21875q0.5 -0.234375 0.875 -0.671875q0.078125 -0.109375 0.109375 -0.140625q0.046875 -0.03125 0.109375 -0.03125q0.15625 0 0.15625 0.203125q0 0.375 -0.359375 0.84375q-0.296875 0.375 -0.71875 0.65625q-0.421875 0.28125 -0.921875 0.421875q-0.5 0.15625 -1.03125 0.15625zm-1.84375 -6.0625l1.8125 0q0.484375 0 0.828125 -0.015625q0.34375 -0.015625 0.65625 -0.078125q0.09375 -0.015625 0.125 -0.125q0.03125 -0.109375 0.03125 -0.3125q0 -0.578125 -0.515625 -0.984375q-0.5 -0.421875 -1.203125 -0.421875q-0.453125 0 -0.921875 0.28125q-0.453125 0.265625 -0.75 0.671875q-0.296875 0.390625 -0.296875 0.796875q0 0.1875 0.234375 0.1875zm6.362488 5.828125q-0.203125 0 -0.3125 -0.0625q-0.09375 -0.046875 -0.09375 -0.15625q0 -0.15625 0.109375 -0.203125q0.125 -0.0625 0.359375 -0.125q0.375 -0.09375 0.5625 -0.28125q0.1875 -0.1875 0.1875 -0.46875l0 -4.3125q0 -0.53125 -0.15625 -0.921875q-0.15625 -0.40625 -0.65625 -0.515625q-0.078125 -0.015625 -0.140625 -0.09375q-0.0625 -0.078125 -0.0625 -0.15625q0 -0.203125 0.171875 -0.25q0.53125 -0.15625 1.09375 -0.46875q0.578125 -0.3125 0.890625 -0.5q0.125 -0.09375 0.1875 -0.109375q0.078125 -0.03125 0.109375 -0.03125q0.109375 0 0.109375 0.140625q0 0.046875 -0.015625 0.296875q-0.015625 0.234375 -0.03125 0.5625q0 0.3125 -0.015625 0.640625q0 0.03125 0.03125 0.03125q0.328125 -0.390625 0.71875 -0.6875q0.390625 -0.3125 0.796875 -0.484375q0.40625 -0.1875 0.796875 -0.1875q0.421875 0 0.6875 0.1875q0.265625 0.171875 0.265625 0.453125q0 0.203125 -0.109375 0.453125q-0.109375 0.234375 -0.296875 0.421875q-0.171875 0.171875 -0.375 0.171875q-0.109375 0 -0.25 -0.046875q-0.140625 -0.0625 -0.3125 -0.140625q-0.15625 -0.0625 -0.3125 -0.109375q-0.15625 -0.0625 -0.328125 -0.0625q-0.46875 0 -0.921875 0.34375q-0.453125 0.328125 -0.453125 1.328125l0 4.046875q0 0.25 0.28125 0.421875q0.28125 0.171875 0.78125 0.328125q0.21875 0.0625 0.328125 0.125q0.125 0.0625 0.125 0.203125q0 0.21875 -0.390625 0.21875q-0.609375 0 -0.921875 -0.0625q-0.296875 -0.046875 -0.828125 -0.046875q-0.328125 0 -0.546875 0.03125q-0.203125 0.015625 -0.4375 0.046875q-0.234375 0.03125 -0.625 0.03125zm6.5706177 0q-0.1875 0 -0.296875 -0.0625q-0.09375 -0.046875 -0.09375 -0.15625q0 -0.15625 0.125 -0.21875q0.125 -0.0625 0.328125 -0.109375q0.46875 -0.09375 0.65625 -0.28125q0.203125 -0.1875 0.203125 -0.59375l0 -5.640625q-0.203125 0 -0.46875 0q-0.25 -0.015625 -0.5625 -0.046875q-0.0625 -0.015625 -0.171875 -0.125q-0.109375 -0.125 -0.109375 -0.234375q0 -0.03125 0.046875 -0.0625q0.0625 -0.03125 0.09375 -0.046875q0.359375 -0.1875 0.609375 -0.328125q0.265625 -0.140625 0.5625 -0.28125q0 -1.734375 0.421875 -2.890625q0.4375 -1.171875 1.109375 -1.84375q0.6875 -0.6875 1.453125 -0.96875q0.765625 -0.296875 1.421875 -0.296875q1.109375 0 1.65625 0.34375q0.546875 0.34375 0.546875 0.859375q0 0.40625 -0.203125 0.609375q-0.203125 0.1875 -0.484375 0.1875q-0.171875 0 -0.328125 -0.140625q-0.15625 -0.140625 -0.34375 -0.3125q-0.265625 -0.265625 -0.65625 -0.484375q-0.375 -0.234375 -1.03125 -0.234375q-0.9375 0 -1.546875 0.828125q-0.609375 0.8125 -0.609375 2.515625l0 1.75q0 0.125 0.0625 0.171875q0.078125 0.03125 0.15625 0.03125l2.5 0q0.09375 0 0.171875 0.0625q0.09375 0.0625 0.09375 0.15625q0 0.140625 -0.03125 0.3125q-0.03125 0.15625 -0.09375 0.265625q-0.0625 0.15625 -0.1875 0.15625l-2.296875 0q-0.234375 0 -0.3125 0.078125q-0.0625 0.0625 -0.0625 0.1875l0 5.421875q0 0.40625 0.25 0.59375q0.265625 0.1875 1.0625 0.28125q0.46875 0.0625 0.46875 0.328125q0 0.109375 -0.109375 0.15625q-0.09375 0.0625 -0.296875 0.0625q-0.59375 0 -1.0625 -0.0625q-0.453125 -0.046875 -0.96875 -0.046875q-0.34375 0 -0.5625 0.03125q-0.21875 0.015625 -0.46875 0.046875q-0.234375 0.03125 -0.640625 0.03125zm9.250641 0.234375q-1.109375 0 -1.9375 -0.53125q-0.8125 -0.546875 -1.28125 -1.53125q-0.453125 -1.0 -0.453125 -2.296875q0 -1.15625 0.53125 -2.109375q0.53125 -0.953125 1.40625 -1.53125q0.890625 -0.578125 1.921875 -0.578125q0.8125 0 1.421875 0.328125q0.625 0.3125 0.96875 0.890625q0.359375 0.5625 0.359375 1.296875q0 0.625 -0.609375 0.625l-4.21875 0q-0.28125 0 -0.390625 0.15625q-0.109375 0.140625 -0.109375 0.578125q0 0.96875 0.421875 1.765625q0.421875 0.78125 1.125 1.25q0.703125 0.46875 1.53125 0.46875q0.609375 0 1.09375 -0.21875q0.5 -0.234375 0.875 -0.671875q0.078125 -0.109375 0.109375 -0.140625q0.046875 -0.03125 0.109375 -0.03125q0.15625 0 0.15625 0.203125q0 0.375 -0.359375 0.84375q-0.296875 0.375 -0.71875 0.65625q-0.421875 0.28125 -0.921875 0.421875q-0.5 0.15625 -1.03125 0.15625zm-1.84375 -6.0625l1.8125 0q0.484375 0 0.828125 -0.015625q0.34375 -0.015625 0.65625 -0.078125q0.09375 -0.015625 0.125 -0.125q0.03125 -0.109375 0.03125 -0.3125q0 -0.578125 -0.515625 -0.984375q-0.5 -0.421875 -1.203125 -0.421875q-0.453125 0 -0.921875 0.28125q-0.453125 0.265625 -0.75 0.671875q-0.296875 0.390625 -0.296875 0.796875q0 0.1875 0.234375 0.1875zm9.443726 6.0625q-1.0 0 -1.8125 -0.5q-0.8125 -0.515625 -1.28125 -1.40625q-0.46875 -0.890625 -0.46875 -1.984375q0 -1.3125 0.5625 -2.359375q0.578125 -1.0625 1.53125 -1.6875q0.96875 -0.640625 2.125 -0.640625q1.296875 0 2.28125 0.703125q0.234375 0.171875 0.234375 0.375q0 0.15625 -0.140625 0.359375q-0.140625 0.203125 -0.34375 0.34375q-0.1875 0.125 -0.375 0.125q-0.09375 0 -0.203125 -0.0625q-0.09375 -0.078125 -0.21875 -0.15625q-0.4375 -0.34375 -0.984375 -0.640625q-0.53125 -0.3125 -0.890625 -0.3125q-0.984375 0 -1.59375 0.921875q-0.609375 0.90625 -0.609375 2.390625q0 0.9375 0.40625 1.703125q0.421875 0.75 1.109375 1.1875q0.6875 0.4375 1.53125 0.4375q0.578125 0 1.0 -0.1875q0.421875 -0.1875 0.890625 -0.671875q0.046875 -0.03125 0.109375 -0.0625q0.0625 -0.03125 0.09375 -0.03125q0.21875 0 0.21875 0.28125q0 0.125 -0.078125 0.28125q-0.0625 0.140625 -0.21875 0.34375q-0.328125 0.390625 -0.765625 0.6875q-0.4375 0.28125 -0.96875 0.421875q-0.53125 0.140625 -1.140625 0.140625zm7.6556396 -0.015625q-0.984375 0 -1.53125 -0.59375q-0.546875 -0.609375 -0.546875 -1.78125l0 -4.640625q0 -0.171875 -0.125 -0.234375q-0.125 -0.078125 -0.515625 -0.078125l-0.125 0q-0.09375 0 -0.171875 -0.125q-0.0625 -0.125 -0.0625 -0.265625q0 -0.046875 0.046875 -0.125q0.0625 -0.078125 0.09375 -0.09375q0.390625 -0.28125 0.71875 -0.5625q0.34375 -0.28125 0.609375 -0.546875q0.265625 -0.28125 0.453125 -0.5q0.09375 -0.09375 0.15625 -0.15625q0.078125 -0.078125 0.171875 -0.078125q0.109375 0 0.1875 0.046875q0.09375 0.03125 0.078125 0.171875l-0.09375 0.90625q-0.03125 0.21875 0.09375 0.296875q0.125 0.078125 0.375 0.078125l2.28125 0q0.078125 0 0.140625 0.140625q0.0625 0.125 0.0625 0.296875q0 0.1875 -0.0625 0.359375q-0.0625 0.15625 -0.140625 0.15625l-1.96875 0q-0.5 0 -0.65625 0.09375q-0.15625 0.078125 -0.15625 0.46875l0 3.9375q0 0.8125 0.34375 1.28125q0.34375 0.453125 0.984375 0.453125q0.578125 0 0.890625 -0.09375q0.328125 -0.09375 0.59375 -0.28125q0.03125 -0.03125 0.078125 -0.03125q0.078125 0 0.109375 0.09375q0.03125 0.078125 0.03125 0.1875q0 0.09375 -0.34375 0.40625q-0.328125 0.296875 -0.859375 0.546875q-0.515625 0.265625 -1.140625 0.265625zm3.2799988 -0.21875q-0.09375 0 -0.25 -0.03125q-0.15625 -0.03125 -0.15625 -0.15625q0 -0.15625 0.15625 -0.21875q0.15625 -0.078125 0.3125 -0.140625q0.296875 -0.09375 0.578125 -0.21875q0.28125 -0.140625 0.28125 -0.53125l0 -10.078125q0 -0.59375 -0.21875 -0.984375q-0.203125 -0.390625 -0.703125 -0.484375q-0.15625 -0.03125 -0.15625 -0.265625q0 -0.1875 0.140625 -0.234375q0.515625 -0.125 0.890625 -0.25q0.390625 -0.125 0.71875 -0.265625q0.328125 -0.140625 0.640625 -0.265625q0.078125 -0.03125 0.125 -0.03125q0.046875 0 0.0625 0.046875q0.03125 0.046875 0.03125 0.09375q0 0.171875 -0.078125 0.765625q-0.0625 0.59375 -0.0625 1.953125l0 10.0q0 0.390625 0.28125 0.53125q0.28125 0.125 0.578125 0.21875q0.171875 0.0625 0.3125 0.140625q0.15625 0.0625 0.15625 0.21875q0 0.125 -0.15625 0.15625q-0.140625 0.03125 -0.25 0.03125q-0.375 0 -0.609375 -0.03125q-0.21875 -0.03125 -0.4375 -0.046875q-0.203125 -0.03125 -0.5625 -0.03125q-0.34375 0 -0.5625 0.03125q-0.21875 0.015625 -0.4375 0.046875q-0.21875 0.03125 -0.625 0.03125zm5.299988 5.640625q-0.375 0 -0.703125 -0.203125q-0.3125 -0.1875 -0.3125 -0.625q0 -0.359375 0.15625 -0.625q0.171875 -0.265625 0.5 -0.265625q0.21875 0 0.421875 0.046875q0.21875 0.0625 0.375 0.0625q0.125 0 0.203125 -0.046875q0.09375 -0.046875 0.171875 -0.171875q0.21875 -0.359375 0.515625 -0.90625q0.296875 -0.53125 0.59375 -1.21875q0.3125 -0.671875 0.59375 -1.4375q0.0625 -0.171875 0.0625 -0.453125q0 -0.15625 -0.03125 -0.296875q-0.015625 -0.15625 -0.046875 -0.28125l-2.328125 -5.859375q-0.140625 -0.359375 -0.375 -0.625q-0.21875 -0.28125 -0.515625 -0.359375q-0.15625 -0.0625 -0.3125 -0.140625q-0.15625 -0.078125 -0.15625 -0.21875q0 -0.125 0.15625 -0.140625q0.15625 -0.03125 0.25 -0.03125q0.40625 0 0.59375 0.015625q0.1875 0.015625 0.359375 0.046875q0.171875 0.03125 0.5 0.03125q0.359375 0 0.546875 -0.03125q0.1875 -0.03125 0.375 -0.046875q0.203125 -0.015625 0.609375 -0.015625q0.109375 0 0.25 0.046875q0.140625 0.046875 0.140625 0.171875q0 0.140625 -0.21875 0.265625q-0.203125 0.125 -0.359375 0.171875q-0.203125 0.0625 -0.296875 0.21875q-0.09375 0.140625 -0.09375 0.421875q0 0.109375 0.046875 0.28125q0.0625 0.171875 0.109375 0.28125l1.625 4.0q0.03125 0.109375 0.109375 0.109375q0.0625 0 0.109375 -0.109375l1.375 -3.671875q0.0625 -0.140625 0.109375 -0.359375q0.046875 -0.234375 0.046875 -0.375q0 -0.375 -0.109375 -0.515625q-0.109375 -0.15625 -0.28125 -0.25q-0.171875 -0.078125 -0.390625 -0.203125q-0.203125 -0.125 -0.203125 -0.265625q0 -0.125 0.15625 -0.171875q0.15625 -0.046875 0.25 -0.046875q0.28125 0 0.5625 0.046875q0.296875 0.046875 0.859375 0.046875q0.375 0 0.546875 -0.03125q0.171875 -0.03125 0.28125 -0.046875q0.125 -0.015625 0.34375 -0.015625q0.109375 0 0.25 0.03125q0.15625 0.015625 0.15625 0.140625q0 0.140625 -0.15625 0.21875q-0.140625 0.078125 -0.296875 0.140625q-0.3125 0.078125 -0.65625 0.46875q-0.328125 0.390625 -0.53125 0.875l-2.71875 6.484375q-0.015625 0.046875 -0.21875 0.5q-0.1875 0.46875 -0.46875 1.140625q-0.265625 0.6875 -0.609375 1.46875q-0.328125 0.78125 -0.625 1.5q-0.171875 0.40625 -0.515625 0.609375q-0.34375 0.21875 -0.78125 0.21875zm13.82251 -5.421875q-0.359375 0 -0.734375 -0.28125q-0.375 -0.28125 -0.625 -0.671875q-0.25 -0.40625 -0.25 -0.765625q0 -0.640625 0.34375 -1.0q0.34375 -0.359375 1.078125 -0.65625l2.046875 -0.84375q0.390625 -0.15625 0.453125 -0.28125q0.078125 -0.125 0.109375 -0.515625l0.03125 -1.28125q0.015625 -0.53125 -0.296875 -0.90625q-0.296875 -0.375 -0.875 -0.375q-0.3125 0 -0.609375 0.109375q-0.296875 0.09375 -0.5 0.25q-0.109375 0.078125 -0.15625 0.234375q-0.046875 0.15625 -0.046875 0.34375q0 0.078125 0.015625 0.1875q0.015625 0.09375 0.015625 0.171875q0 0.09375 -0.25 0.265625q-0.25 0.171875 -0.5625 0.3125q-0.3125 0.125 -0.515625 0.125q-0.09375 0 -0.15625 -0.046875q-0.0625 -0.0625 -0.0625 -0.140625q0 -0.3125 0.203125 -0.6875q0.21875 -0.375 0.59375 -0.6875q0.46875 -0.421875 1.0 -0.734375q0.546875 -0.328125 1.0625 -0.5q0.53125 -0.1875 0.921875 -0.1875q0.71875 0 1.1875 0.515625q0.46875 0.5 0.453125 1.265625l-0.09375 4.796875q-0.03125 0.421875 0.171875 0.6875q0.21875 0.25 0.546875 0.25q0.5 0 0.734375 -0.21875q0.109375 -0.09375 0.15625 -0.09375q0.109375 0 0.15625 0.0625q0.0625 0.0625 0.0625 0.15625q0 0.21875 -0.21875 0.4375q-0.3125 0.328125 -0.6875 0.515625q-0.359375 0.1875 -0.6875 0.1875q-0.921875 0 -1.453125 -1.046875l-0.0625 0q-0.65625 0.546875 -1.265625 0.796875q-0.59375 0.25 -1.234375 0.25zm0.9375 -0.96875q0.40625 0 0.671875 -0.125q0.28125 -0.125 0.5 -0.34375q0.109375 -0.109375 0.171875 -0.265625q0.078125 -0.171875 0.09375 -0.5625l0.046875 -0.96875q0.015625 -0.234375 -0.03125 -0.328125q-0.03125 -0.09375 -0.15625 -0.09375q-0.03125 0 -0.140625 0.015625q-0.09375 0.015625 -0.25 0.078125q-1.0625 0.375 -1.484375 0.796875q-0.40625 0.40625 -0.40625 0.75q0 0.515625 0.3125 0.78125q0.3125 0.265625 0.671875 0.265625zm5.4799805 0.75q-0.09375 0 -0.25 -0.03125q-0.15625 -0.03125 -0.15625 -0.15625q0 -0.15625 0.15625 -0.21875q0.15625 -0.078125 0.3125 -0.140625q0.296875 -0.09375 0.578125 -0.21875q0.28125 -0.140625 0.28125 -0.53125l0 -10.078125q0 -0.59375 -0.21875 -0.984375q-0.203125 -0.390625 -0.703125 -0.484375q-0.15625 -0.03125 -0.15625 -0.265625q0 -0.1875 0.140625 -0.234375q0.515625 -0.125 0.890625 -0.25q0.390625 -0.125 0.71875 -0.265625q0.328125 -0.140625 0.640625 -0.265625q0.078125 -0.03125 0.125 -0.03125q0.046875 0 0.0625 0.046875q0.03125 0.046875 0.03125 0.09375q0 0.171875 -0.078125 0.765625q-0.0625 0.59375 -0.0625 1.953125l0 10.0q0 0.390625 0.28125 0.53125q0.28125 0.125 0.578125 0.21875q0.171875 0.0625 0.3125 0.140625q0.15625 0.0625 0.15625 0.21875q0 0.125 -0.15625 0.15625q-0.140625 0.03125 -0.25 0.03125q-0.375 0 -0.609375 -0.03125q-0.21875 -0.03125 -0.4375 -0.046875q-0.203125 -0.03125 -0.5625 -0.03125q-0.34375 0 -0.5625 0.03125q-0.21875 0.015625 -0.4375 0.046875q-0.21875 0.03125 -0.625 0.03125zm4.8937683 0q-0.171875 0 -0.28125 -0.0625q-0.109375 -0.046875 -0.109375 -0.15625q0 -0.15625 0.140625 -0.21875q0.15625 -0.0625 0.3125 -0.109375q0.421875 -0.09375 0.640625 -0.234375q0.21875 -0.15625 0.21875 -0.515625l0 -4.34375q0 -0.546875 -0.1875 -0.953125q-0.1875 -0.421875 -0.703125 -0.515625q-0.109375 -0.015625 -0.15625 -0.078125q-0.046875 -0.0625 -0.046875 -0.171875q0 -0.21875 0.171875 -0.25q0.8125 -0.171875 1.328125 -0.484375q0.515625 -0.3125 0.78125 -0.515625q0.171875 -0.140625 0.28125 -0.140625q0.109375 0 0.109375 0.109375q0 0.15625 -0.046875 0.625q-0.046875 0.46875 -0.09375 1.046875q-0.03125 0.5625 -0.03125 1.03125l0 4.640625q0 0.328125 0.21875 0.5q0.234375 0.15625 0.640625 0.25q0.15625 0.046875 0.296875 0.109375q0.15625 0.0625 0.15625 0.21875q0 0.21875 -0.390625 0.21875q-0.390625 0 -0.625 -0.03125q-0.21875 -0.03125 -0.4375 -0.046875q-0.203125 -0.03125 -0.5625 -0.03125q-0.34375 0 -0.5625 0.03125q-0.21875 0.015625 -0.4375 0.046875q-0.21875 0.03125 -0.625 0.03125zm1.609375 -10.375q-0.421875 0 -0.71875 -0.296875q-0.28125 -0.296875 -0.28125 -0.703125q0 -0.453125 0.28125 -0.734375q0.296875 -0.296875 0.71875 -0.296875q0.4375 0 0.71875 0.296875q0.296875 0.28125 0.296875 0.734375q0 0.40625 -0.296875 0.703125q-0.28125 0.296875 -0.71875 0.296875zm6.321869 16.109375q-1.703125 0 -2.703125 -0.65625q-0.984375 -0.640625 -0.984375 -1.734375q0 -0.53125 0.15625 -0.890625q0.171875 -0.359375 0.5 -0.609375q0.28125 -0.25 0.75 -0.625q0.46875 -0.359375 0.96875 -0.765625l0.84375 0.046875q-0.953125 0.625 -1.34375 1.171875q-0.375 0.5625 -0.375 1.359375q0 0.8125 0.703125 1.359375q0.71875 0.546875 1.765625 0.546875q1.171875 0 1.890625 -0.546875q0.5 -0.375 0.78125 -0.984375q0.28125 -0.609375 0.28125 -1.28125q0 -0.453125 -0.3125 -0.75q-0.3125 -0.28125 -0.96875 -0.46875q-0.65625 -0.171875 -1.71875 -0.234375q-1.875 -0.140625 -2.609375 -0.5q-0.734375 -0.359375 -0.734375 -1.109375q0 -0.203125 0.109375 -0.375q0.109375 -0.171875 0.359375 -0.375q0.453125 -0.359375 0.671875 -0.515625q0.21875 -0.171875 0.328125 -0.296875q0.109375 -0.125 0.21875 -0.296875l0.671875 0.328125q-0.4375 0.171875 -0.734375 0.4375q-0.296875 0.265625 -0.296875 0.484375q0 0.28125 0.296875 0.5q0.296875 0.203125 0.875 0.328125q0.578125 0.109375 1.421875 0.171875q1.84375 0.109375 2.734375 0.609375q0.90625 0.5 0.90625 1.421875q0 0.765625 -0.390625 1.515625q-0.390625 0.75 -1.03125 1.375q-0.640625 0.625 -1.4375 0.984375q-0.78125 0.375 -1.59375 0.375zm0.234375 -8.609375q0.765625 0 1.265625 -0.765625q0.5 -0.78125 0.5 -1.921875q0 -0.578125 -0.28125 -1.078125q-0.265625 -0.515625 -0.703125 -0.828125q-0.421875 -0.3125 -0.921875 -0.3125q-0.453125 0 -0.875 0.328125q-0.40625 0.328125 -0.65625 0.859375q-0.25 0.515625 -0.25 1.125q0 0.703125 0.25 1.296875q0.265625 0.59375 0.703125 0.953125q0.453125 0.34375 0.96875 0.34375zm-0.125 0.6875q-0.8125 0 -1.5625 -0.40625q-0.734375 -0.421875 -1.203125 -1.109375q-0.46875 -0.703125 -0.46875 -1.515625q0 -0.9375 0.484375 -1.640625q0.5 -0.71875 1.296875 -1.109375q0.796875 -0.40625 1.703125 -0.40625q0.578125 0 1.0 0.15625q0.4375 0.140625 0.859375 0.25q0.46875 0.140625 0.75 0.171875q0.28125 0.03125 0.578125 0.03125q0.25 0 0.609375 -0.03125q0.359375 -0.03125 0.5 -0.03125q0.25 0 0.25 0.3125q0 0.171875 -0.1875 0.375q-0.109375 0.09375 -0.171875 0.09375l-0.53125 0q-0.546875 0 -0.609375 0.171875q-0.015625 0.078125 -0.046875 0.234375q-0.03125 0.140625 -0.046875 0.328125q-0.015625 0.171875 -0.015625 0.34375q0 1.03125 -0.453125 1.890625q-0.4375 0.859375 -1.15625 1.375q-0.71875 0.515625 -1.578125 0.515625zm5.5593567 2.1875q-0.171875 0 -0.28125 -0.0625q-0.109375 -0.046875 -0.109375 -0.15625q0 -0.15625 0.109375 -0.203125q0.125 -0.0625 0.34375 -0.125q0.296875 -0.078125 0.578125 -0.21875q0.28125 -0.140625 0.28125 -0.53125l0 -4.3125q0 -0.53125 -0.109375 -0.90625q-0.109375 -0.390625 -0.625 -0.53125q-0.078125 -0.03125 -0.140625 -0.078125q-0.0625 -0.0625 -0.0625 -0.171875q0 -0.21875 0.1875 -0.25q0.6875 -0.171875 1.125 -0.4375q0.453125 -0.265625 0.875 -0.578125q0.046875 -0.046875 0.09375 -0.0625q0.0625 -0.03125 0.125 -0.03125q0.03125 0 0.0625 0.046875q0.03125 0.03125 0.03125 0.09375q0 0.140625 -0.046875 0.578125q-0.046875 0.421875 -0.046875 0.6875q0 0.09375 0 0.171875q0.015625 0.0625 0.03125 0.078125q0.703125 -0.65625 1.484375 -1.0q0.796875 -0.34375 1.734375 -0.34375q0.984375 0 1.625 0.796875q0.640625 0.796875 0.640625 1.984375l0 4.265625q0 0.390625 0.28125 0.53125q0.28125 0.125 0.578125 0.21875q0.15625 0.0625 0.296875 0.140625q0.15625 0.0625 0.15625 0.21875q0 0.125 -0.140625 0.15625q-0.140625 0.03125 -0.25 0.03125q-0.40625 0 -0.625 -0.03125q-0.21875 -0.03125 -0.421875 -0.046875q-0.203125 -0.03125 -0.5625 -0.03125q-0.328125 0 -0.5625 0.03125q-0.21875 0.015625 -0.453125 0.046875q-0.21875 0.03125 -0.625 0.03125q-0.09375 0 -0.25 -0.03125q-0.140625 -0.03125 -0.140625 -0.15625q0 -0.15625 0.140625 -0.21875q0.15625 -0.078125 0.3125 -0.140625q0.296875 -0.09375 0.578125 -0.21875q0.28125 -0.140625 0.28125 -0.53125l0 -4.203125q0 -0.875 -0.484375 -1.359375q-0.484375 -0.5 -1.3125 -0.515625q-0.71875 0 -1.265625 0.234375q-0.53125 0.21875 -0.953125 0.5625q-0.078125 0.078125 -0.125 0.203125q-0.03125 0.125 -0.03125 0.25l0 4.828125q0 0.390625 0.28125 0.53125q0.28125 0.140625 0.578125 0.21875q0.453125 0.125 0.453125 0.328125q0 0.109375 -0.109375 0.15625q-0.09375 0.0625 -0.28125 0.0625q-0.40625 0 -0.640625 -0.03125q-0.21875 -0.03125 -0.421875 -0.046875q-0.203125 -0.03125 -0.5625 -0.03125q-0.34375 0 -0.5625 0.03125q-0.203125 0.015625 -0.4375 0.046875q-0.21875 0.03125 -0.625 0.03125z" fill-rule="nonzero"/><path fill="#000000" d="m281.59897 77.95233q-0.03125 0 -0.078125 -0.046875q-0.03125 -0.03125 -0.0625 -0.09375l-2.78125 -6.890625q-0.140625 -0.40625 -0.4375 -0.65625q-0.296875 -0.25 -0.59375 -0.328125q-0.15625 -0.0625 -0.3125 -0.140625q-0.15625 -0.078125 -0.15625 -0.21875q0 -0.125 0.15625 -0.140625q0.15625 -0.03125 0.25 -0.03125q0.265625 0 0.484375 0.015625q0.234375 0.015625 0.46875 0.046875q0.25 0.03125 0.5 0.03125q0.28125 0 0.5625 -0.03125q0.28125 -0.03125 0.546875 -0.046875q0.28125 -0.015625 0.5625 -0.015625q0.078125 0 0.234375 0.03125q0.15625 0.015625 0.15625 0.140625q0 0.140625 -0.15625 0.21875q-0.140625 0.078125 -0.296875 0.140625q-0.203125 0.0625 -0.3125 0.296875q-0.109375 0.21875 -0.109375 0.5q0 0.265625 0.09375 0.53125l1.5625 4.015625q0.015625 0.078125 0.109375 0.078125q0.078125 0 0.09375 -0.078125l1.359375 -3.234375q0.09375 -0.265625 0.125 -0.5q0.03125 -0.25 0.03125 -0.46875q0 -0.4375 -0.34375 -0.71875q-0.328125 -0.28125 -0.671875 -0.421875q-0.15625 -0.0625 -0.3125 -0.140625q-0.140625 -0.078125 -0.140625 -0.21875q0 -0.125 0.125 -0.140625q0.140625 -0.03125 0.265625 -0.03125q0.28125 0 0.609375 0.046875q0.328125 0.046875 0.890625 0.046875q0.5625 0 0.953125 -0.046875q0.40625 -0.046875 0.734375 -0.046875q0.09375 0 0.234375 0.03125q0.15625 0.015625 0.15625 0.140625q0 0.140625 -0.15625 0.21875q-0.140625 0.078125 -0.296875 0.140625q-0.21875 0.078125 -0.453125 0.21875q-0.234375 0.140625 -0.234375 0.5q0 0.125 0.03125 0.28125q0.03125 0.140625 0.109375 0.328125l1.5 3.859375q0.109375 0.21875 0.171875 0.21875q0.078125 0 0.15625 -0.203125l1.515625 -3.546875q0.078125 -0.15625 0.109375 -0.390625q0.03125 -0.25 0.03125 -0.390625q0 -0.359375 -0.25 -0.578125q-0.234375 -0.21875 -0.453125 -0.296875q-0.15625 -0.0625 -0.3125 -0.140625q-0.140625 -0.078125 -0.140625 -0.21875q0 -0.125 0.140625 -0.140625q0.15625 -0.03125 0.25 -0.03125q0.453125 0 0.703125 0.046875q0.265625 0.046875 0.796875 0.046875q0.390625 0 0.546875 -0.03125q0.15625 -0.03125 0.28125 -0.046875q0.125 -0.015625 0.34375 -0.015625q0.109375 0 0.25 0.03125q0.140625 0.015625 0.140625 0.140625q0 0.140625 -0.15625 0.21875q-0.140625 0.078125 -0.296875 0.140625q-0.296875 0.078125 -0.578125 0.46875q-0.28125 0.390625 -0.484375 0.859375l-2.734375 6.546875q-0.0625 0.140625 -0.1875 0.140625q-0.078125 0 -0.15625 -0.140625l-2.078125 -5.15625q-0.0625 -0.15625 -0.125 -0.171875q-0.0625 0 -0.140625 0.203125l-2.171875 5.125q-0.0625 0.140625 -0.171875 0.140625zm10.059357 -0.390625q-0.171875 0 -0.28125 -0.0625q-0.109375 -0.046875 -0.109375 -0.15625q0 -0.15625 0.140625 -0.21875q0.15625 -0.0625 0.3125 -0.109375q0.421875 -0.09375 0.640625 -0.234375q0.21875 -0.15625 0.21875 -0.515625l0 -4.34375q0 -0.546875 -0.1875 -0.953125q-0.1875 -0.421875 -0.703125 -0.515625q-0.109375 -0.015625 -0.15625 -0.078125q-0.046875 -0.0625 -0.046875 -0.171875q0 -0.21875 0.171875 -0.25q0.8125 -0.171875 1.328125 -0.484375q0.515625 -0.3125 0.78125 -0.515625q0.171875 -0.140625 0.28125 -0.140625q0.109375 0 0.109375 0.109375q0 0.15625 -0.046875 0.625q-0.046875 0.46875 -0.09375 1.046875q-0.03125 0.5625 -0.03125 1.03125l0 4.640625q0 0.328125 0.21875 0.5q0.234375 0.15625 0.640625 0.25q0.15625 0.046875 0.296875 0.109375q0.15625 0.0625 0.15625 0.21875q0 0.21875 -0.390625 0.21875q-0.390625 0 -0.625 -0.03125q-0.21875 -0.03125 -0.4375 -0.046875q-0.203125 -0.03125 -0.5625 -0.03125q-0.34375 0 -0.5625 0.03125q-0.21875 0.015625 -0.4375 0.046875q-0.21875 0.03125 -0.625 0.03125zm1.609375 -10.375q-0.421875 0 -0.71875 -0.296875q-0.28125 -0.296875 -0.28125 -0.703125q0 -0.453125 0.28125 -0.734375q0.296875 -0.296875 0.71875 -0.296875q0.4375 0 0.71875 0.296875q0.296875 0.28125 0.296875 0.734375q0 0.40625 -0.296875 0.703125q-0.28125 0.296875 -0.71875 0.296875zm6.196869 10.59375q-0.984375 0 -1.53125 -0.59375q-0.546875 -0.609375 -0.546875 -1.78125l0 -4.640625q0 -0.171875 -0.125 -0.234375q-0.125 -0.078125 -0.515625 -0.078125l-0.125 0q-0.09375 0 -0.171875 -0.125q-0.0625 -0.125 -0.0625 -0.265625q0 -0.046875 0.046875 -0.125q0.0625 -0.078125 0.09375 -0.09375q0.390625 -0.28125 0.71875 -0.5625q0.34375 -0.28125 0.609375 -0.546875q0.265625 -0.28125 0.453125 -0.5q0.09375 -0.09375 0.15625 -0.15625q0.078125 -0.078125 0.171875 -0.078125q0.109375 0 0.1875 0.046875q0.09375 0.03125 0.078125 0.171875l-0.09375 0.90625q-0.03125 0.21875 0.09375 0.296875q0.125 0.078125 0.375 0.078125l2.28125 0q0.078125 0 0.140625 0.140625q0.0625 0.125 0.0625 0.296875q0 0.1875 -0.0625 0.359375q-0.0625 0.15625 -0.140625 0.15625l-1.96875 0q-0.5 0 -0.65625 0.09375q-0.15625 0.078125 -0.15625 0.46875l0 3.9375q0 0.8125 0.34375 1.28125q0.34375 0.453125 0.984375 0.453125q0.578125 0 0.890625 -0.09375q0.328125 -0.09375 0.59375 -0.28125q0.03125 -0.03125 0.078125 -0.03125q0.078125 0 0.109375 0.09375q0.03125 0.078125 0.03125 0.1875q0 0.09375 -0.34375 0.40625q-0.328125 0.296875 -0.859375 0.546875q-0.515625 0.265625 -1.140625 0.265625zm3.2799988 -0.21875q-0.40625 0 -0.40625 -0.21875q0 -0.1875 0.46875 -0.328125q0.296875 -0.09375 0.5625 -0.25q0.28125 -0.171875 0.296875 -0.5625l0 -10.015625q0 -0.546875 -0.1875 -0.953125q-0.171875 -0.421875 -0.703125 -0.5q-0.171875 -0.03125 -0.171875 -0.28125q0 -0.171875 0.15625 -0.234375q0.28125 -0.09375 0.671875 -0.21874619q0.390625 -0.125 0.8125 -0.265625q0.421875 -0.15625 0.734375 -0.296875q0.078125 -0.03125 0.125 -0.03125q0.0625 0 0.09375 0.046875q0.046875 0.03125 0.046875 0.09375q0 0.109375 -0.046875 0.328125q-0.046875 0.21874619 -0.09375 0.7656212q-0.046875 0.546875 -0.046875 1.625l0 3.46875q0 0.328125 0.03125 0.46875q0.03125 0.140625 0.109375 0.28125q0.328125 -0.25 0.796875 -0.53125q0.46875 -0.296875 1.046875 -0.515625q0.578125 -0.21875 1.203125 -0.21875q0.984375 0 1.625 0.78125q0.65625 0.765625 0.65625 1.9375l0 4.203125q0 0.40625 0.25 0.59375q0.265625 0.1875 0.5625 0.28125q0.21875 0.0625 0.34375 0.140625q0.125 0.0625 0.125 0.1875q0 0.21875 -0.40625 0.21875q-0.390625 0 -0.609375 -0.03125q-0.203125 -0.03125 -0.40625 -0.046875q-0.1875 -0.03125 -0.546875 -0.03125q-0.328125 0 -0.53125 0.03125q-0.203125 0.015625 -0.421875 0.046875q-0.203125 0.03125 -0.609375 0.03125q-0.390625 0 -0.390625 -0.21875q0 -0.140625 0.109375 -0.1875q0.125 -0.0625 0.34375 -0.140625q0.3125 -0.09375 0.546875 -0.28125q0.234375 -0.1875 0.234375 -0.59375l0 -4.078125q0 -0.5 -0.296875 -0.90625q-0.28125 -0.421875 -0.703125 -0.65625q-0.421875 -0.234375 -0.859375 -0.234375q-0.375 0 -0.875 0.109375q-0.5 0.109375 -0.78125 0.328125q-0.328125 0.25 -0.4375 0.53125q-0.109375 0.28125 -0.109375 0.90625l0 4.0625q0.03125 0.390625 0.25 0.5625q0.234375 0.15625 0.53125 0.25q0.21875 0.0625 0.328125 0.140625q0.109375 0.0625 0.109375 0.1875q0 0.21875 -0.390625 0.21875q-0.40625 0 -0.609375 -0.03125q-0.1875 -0.03125 -0.375 -0.046875q-0.171875 -0.03125 -0.53125 -0.03125q-0.34375 0 -0.5625 0.03125q-0.203125 0.015625 -0.4375 0.046875q-0.21875 0.03125 -0.625 0.03125z" fill-rule="nonzero"/><path fill="#000000" d="m321.04456 81.79608q-0.34375 0 -0.578125 -0.234375q-0.421875 -0.421875 -0.890625 -1.203125q-0.46875 -0.765625 -0.9375 -1.75q-0.453125 -0.984375 -0.84375 -2.09375q-0.375 -1.109375 -0.59375 -2.234375q-0.21875 -1.125 -0.21875 -2.125q0 -1.28125 0.3125 -2.53125q0.328125 -1.265625 0.84375 -2.40625q0.53125 -1.140625 1.109375 -2.03125q0.578125 -0.90625 1.109375 -1.4218712q0.140625 -0.171875 0.40625 -0.28125q0.265625 -0.109375 0.5 -0.109375q0.1875 0 0.453125 0.171875q0.28125 0.15625 0.28125 0.375q0 0.03125 -0.09375 0.17187119q-0.078125 0.125 -0.1875 0.28125q-0.09375 0.140625 -0.140625 0.1875q-0.515625 0.65625 -1.03125 1.765625q-0.515625 1.09375 -0.875 2.5625q-0.34375 1.453125 -0.34375 3.171875q0 1.140625 0.171875 2.390625q0.1875 1.234375 0.5 2.421875q0.3125 1.171875 0.671875 2.109375q0.375 0.9375 0.78125 1.421875q0.03125 0.03125 0.140625 0.171875q0.125 0.140625 0.234375 0.28125q0.125 0.140625 0.125 0.1875q0 0.359375 -0.296875 0.546875q-0.296875 0.203125 -0.609375 0.203125zm8.616852 -4.015625q-0.53125 0 -1.0 -0.265625q-0.453125 -0.25 -0.734375 -0.671875q-0.265625 -0.421875 -0.265625 -0.921875q0 -0.6875 0.421875 -1.140625q0.4375 -0.46875 1.28125 -0.828125l1.78125 -0.765625q0.390625 -0.1875 0.484375 -0.328125q0.09375 -0.140625 0.09375 -0.515625l0.015625 -1.140625q0.03125 -0.5625 -0.203125 -0.890625q-0.21875 -0.328125 -0.65625 -0.328125q-0.25 0 -0.515625 0.109375q-0.265625 0.109375 -0.40625 0.25q-0.0625 0.078125 -0.09375 0.1875q-0.015625 0.109375 -0.015625 0.234375q0 0.109375 0.015625 0.28125q0.015625 0.171875 0.015625 0.296875q0 0.109375 -0.328125 0.3125q-0.3125 0.1875 -0.734375 0.34375q-0.421875 0.140625 -0.71875 0.140625q-0.140625 0 -0.25 -0.109375q-0.109375 -0.125 -0.109375 -0.3125q0 -0.3125 0.21875 -0.625q0.21875 -0.3125 0.71875 -0.71875q0.53125 -0.4375 1.140625 -0.765625q0.625 -0.34375 1.234375 -0.546875q0.609375 -0.203125 1.03125 -0.203125q1.078125 0 1.71875 0.6875q0.640625 0.6875 0.59375 1.828125l-0.09375 4.046875q-0.015625 0.453125 0.15625 0.78125q0.1875 0.3125 0.4375 0.3125q0.390625 0 0.671875 -0.25q0.0625 -0.0625 0.109375 -0.0625q0.109375 0 0.171875 0.0625q0.078125 0.046875 0.078125 0.15625q0 0.234375 -0.359375 0.625q-0.390625 0.359375 -0.8125 0.546875q-0.40625 0.1875 -0.875 0.1875q-1.109375 0 -1.859375 -1.140625l-0.03125 0q-0.671875 0.59375 -1.203125 0.859375q-0.515625 0.28125 -1.125 0.28125zm1.203125 -1.296875q0.21875 0 0.359375 -0.0625q0.140625 -0.078125 0.28125 -0.234375q0.0625 -0.09375 0.09375 -0.21875q0.046875 -0.125 0.046875 -0.3125l0.0625 -1.4375q0 -0.203125 -0.0625 -0.25q-0.0625 -0.0625 -0.140625 -0.0625q-0.046875 0 -0.109375 0.015625q-0.046875 0.015625 -0.125 0.0625q-0.59375 0.28125 -0.875 0.578125q-0.265625 0.28125 -0.265625 0.921875q0 0.578125 0.234375 0.796875q0.234375 0.203125 0.5 0.203125zm15.40625 1.234375q-0.09375 0 -0.1875 -0.109375q-0.078125 -0.09375 -0.078125 -0.203125l0 -4.0625q0 -0.25 -0.234375 -0.25l-4.1875 0q-0.140625 0 -0.234375 -0.078125q-0.078125 -0.078125 -0.078125 -0.15625q0 -0.15625 0.046875 -0.375q0.046875 -0.21875 0.171875 -0.390625q0.140625 -0.1875 0.328125 -0.1875l3.921875 0q0.1875 0 0.21875 -0.0625q0.046875 -0.078125 0.046875 -0.203125l0 -3.59375q0 -0.203125 0.171875 -0.34375q0.171875 -0.15625 0.390625 -0.25q0.234375 -0.09375 0.375 -0.09375q0.140625 0 0.21875 0.140625q0.078125 0.125 0.078125 0.296875l0 3.84375q0 0.265625 0.21875 0.265625l4.078125 0q0.1875 0 0.3125 0.078125q0.140625 0.0625 0.140625 0.21875q0 0.25 -0.203125 0.578125q-0.203125 0.3125 -0.484375 0.3125l-3.8125 0q-0.25 0 -0.25 0.25l0 3.8125q0 0.203125 -0.1875 0.34375q-0.1875 0.125 -0.421875 0.171875q-0.234375 0.046875 -0.359375 0.046875zm16.57248 0.0625q-0.578125 0 -1.078125 -0.109375q-0.484375 -0.09375 -0.875 -0.1875q-0.3125 -0.109375 -0.5625 -0.15625q-0.25 -0.0625 -0.40625 -0.0625q-0.203125 0 -0.390625 0.078125q-0.171875 0.0625 -0.328125 0.171875q-0.171875 0.140625 -0.28125 0.140625q-0.171875 0 -0.265625 -0.078125q-0.09375 -0.078125 -0.09375 -0.171875q0 -0.1875 0.109375 -0.703125q0.109375 -0.515625 0.09375 -1.296875l-0.078125 -8.90625q0 -0.515625 -0.15625 -0.921875q-0.140625 -0.421875 -0.625 -0.515625q-0.109375 -0.015625 -0.1875 -0.09375q-0.0625 -0.09375 -0.0625 -0.234375q0 -0.09375 0.0625 -0.171875q0.0625 -0.078125 0.171875 -0.109375q0.4375 -0.078125 1.015625 -0.265625q0.578125 -0.18749619 1.125 -0.3906212q0.546875 -0.21875 0.859375 -0.3125q0.1875 -0.078125 0.265625 -0.078125q0.125 0 0.171875 0.078125q0.0625 0.0625 0.0625 0.15625q0 0.125 -0.0625 0.4999962q-0.046875 0.375 -0.046875 0.765625l0 4.28125q0 0.25 0.03125 0.40625q0.046875 0.140625 0.15625 0.140625q0.609375 -0.421875 1.28125 -0.640625q0.671875 -0.234375 1.28125 -0.234375q1.03125 0 1.875 0.546875q0.84375 0.53125 1.328125 1.46875q0.484375 0.9375 0.484375 2.125q0 1.40625 -0.625 2.5q-0.609375 1.078125 -1.703125 1.6875q-1.09375 0.59375 -2.546875 0.59375zm0.359375 -0.84375q0.546875 0 0.921875 -0.46875q0.375 -0.46875 0.578125 -1.25q0.21875 -0.78125 0.21875 -1.703125q0 -0.796875 -0.21875 -1.609375q-0.203125 -0.828125 -0.65625 -1.375q-0.4375 -0.546875 -1.140625 -0.546875q-0.359375 0 -0.84375 0.109375q-0.484375 0.109375 -0.78125 0.34375l0 4.265625q0 0.640625 0.265625 1.15625q0.28125 0.515625 0.71875 0.796875q0.4375 0.28125 0.9375 0.28125zm11.033112 4.859375q-0.328125 0 -0.609375 -0.203125q-0.28125 -0.1875 -0.28125 -0.546875q0 -0.046875 0.109375 -0.1875q0.109375 -0.140625 0.234375 -0.28125q0.140625 -0.140625 0.140625 -0.171875q0.390625 -0.484375 0.765625 -1.421875q0.390625 -0.9375 0.6875 -2.109375q0.296875 -1.1875 0.46875 -2.421875q0.1875 -1.25 0.1875 -2.390625q0 -1.71875 -0.359375 -3.171875q-0.34375 -1.46875 -0.859375 -2.5625q-0.515625 -1.109375 -1.03125 -1.765625q-0.03125 -0.046875 -0.140625 -0.1875q-0.109375 -0.15625 -0.203125 -0.28125q-0.078125 -0.14062119 -0.078125 -0.17187119q0 -0.21875 0.28125 -0.375q0.28125 -0.171875 0.453125 -0.171875q0.265625 0 0.515625 0.109375q0.265625 0.109375 0.40625 0.28125q0.515625 0.5156212 1.109375 1.4218712q0.59375 0.890625 1.09375 2.03125q0.515625 1.140625 0.828125 2.40625q0.328125 1.25 0.328125 2.53125q0 1.0 -0.21875 2.125q-0.21875 1.125 -0.609375 2.234375q-0.375 1.109375 -0.828125 2.09375q-0.4375 0.984375 -0.921875 1.75q-0.484375 0.78125 -0.90625 1.203125q-0.234375 0.234375 -0.5625 0.234375z" fill-rule="nonzero"/><path fill="#000000" fill-opacity="0.0" d="m491.55304 77.21897l34.614197 0l0 42.015747l-34.614197 0z" fill-rule="evenodd"/><path fill="#000000" d="m505.81866 104.29522q-0.078125 0 -0.15625 -0.09375q-0.078125 -0.078125 -0.078125 -0.171875l0 -3.9375q0 -0.09375 -0.0625 -0.09375l-3.78125 0q-0.09375 0 -0.171875 -0.078125q-0.078125 -0.078125 -0.078125 -0.140625q0 -0.09375 0.046875 -0.265625q0.046875 -0.171875 0.140625 -0.3125q0.09375 -0.140625 0.25 -0.140625l3.53125 0q0.09375 0 0.109375 -0.03125q0.015625 -0.046875 0.015625 -0.109375l0 -3.1875q0 -0.21875 0.1875 -0.34375q0.1875 -0.125 0.40625 -0.1875q0.21875 -0.0625 0.265625 -0.0625q0.09375 0 0.171875 0.078125q0.09375 0.078125 0.09375 0.171875l0 3.5625q0 0.109375 0.03125 0.109375l3.828125 0q0.09375 0 0.171875 0.046875q0.078125 0.046875 0.078125 0.140625q0 0.25 -0.171875 0.5q-0.15625 0.25 -0.40625 0.25l-3.453125 0q-0.078125 0 -0.078125 0.078125l0 3.765625q0 0.1875 -0.1875 0.296875q-0.1875 0.09375 -0.40625 0.125q-0.203125 0.03125 -0.296875 0.03125z" fill-rule="nonzero"/><path fill="#000000" fill-opacity="0.0" d="m529.3888 18.938118l34.614197 0l0 42.015747l-34.614197 0z" fill-rule="evenodd"/><path fill="#000000" d="m541.8263 38.920616q-0.140625 0 -0.21875 -0.09375q-0.078125 -0.109375 -0.109375 -0.25l-0.234375 -1.71875q-0.3125 0.234375 -0.6875 0.453125q-0.359375 0.21875 -0.78125 0.484375q-0.046875 0.046875 -0.109375 0.0625q-0.046875 0.015625 -0.109375 0.015625q-0.109375 0 -0.21875 -0.0625q-0.109375 -0.0625 -0.109375 -0.203125q0 -0.140625 0.171875 -0.3125l1.359375 -1.078125q-0.359375 -0.171875 -0.734375 -0.359375q-0.375 -0.1875 -0.796875 -0.421875q-0.09375 -0.046875 -0.15625 -0.140625q-0.0625 -0.109375 -0.0625 -0.203125q0 -0.203125 0.171875 -0.234375q0.171875 -0.046875 0.28125 0q0.453125 0.171875 0.859375 0.34375q0.421875 0.15625 0.765625 0.296875q-0.03125 -0.390625 -0.0625 -0.8125q-0.03125 -0.4375 -0.046875 -0.921875q0 -0.140625 0.078125 -0.265625q0.078125 -0.140625 0.234375 -0.140625q0.140625 0 0.21875 0.109375q0.09375 0.09375 0.109375 0.234375l0.234375 1.703125q0.328125 -0.21875 0.6875 -0.453125q0.375 -0.234375 0.796875 -0.46875q0.03125 -0.046875 0.078125 -0.0625q0.0625 -0.015625 0.125 -0.015625q0.109375 0 0.21875 0.0625q0.109375 0.046875 0.109375 0.203125q0 0.140625 -0.171875 0.3125l-1.359375 1.078125q0.375 0.171875 0.734375 0.359375q0.375 0.171875 0.796875 0.421875q0.09375 0.046875 0.15625 0.15625q0.078125 0.09375 0.078125 0.1875q0 0.1875 -0.1875 0.234375q-0.171875 0.046875 -0.28125 0q-0.453125 -0.203125 -0.859375 -0.34375q-0.390625 -0.15625 -0.765625 -0.296875q0.03125 0.390625 0.0625 0.828125q0.03125 0.421875 0.046875 0.90625q0 0.140625 -0.078125 0.28125q-0.078125 0.125 -0.234375 0.125z" fill-rule="nonzero"/></g></svg>